<?xml version="1.0" encoding="UTF-8"?><svg version="1.1" viewBox="-0.00156643 -25.0612 13.442 13.4408" xmlns="http://www.w3.org/2000/svg" xmlns:xlink="http://www.w3.org/1999/xlink"><path d="M6.636-25.0608q2.772-.028 4.76 1.904 1.988 1.932 2.044 4.704 .028 2.8-1.904 4.788 -1.932 1.988-4.732 2.044 -2.772.028-4.774-1.918 -2.002-1.946-2.03-4.718 -.056-2.8 1.89-4.788 1.946-1.988 4.746-2.016Zm.168 12.012q2.184-.028 3.724-1.596 1.54-1.568 1.512-3.78 -.028-2.212-1.61-3.738 -1.582-1.526-3.78-1.498 -2.198.028-3.724 1.596 -1.526 1.568-1.498 3.78 .028 2.212 1.596 3.738 1.568 1.526 3.78 1.498Zm-1.736-4.172q.56 0 .812-.56l.784.42q-.28.504-.7.728 -.448.28-.98.28 -.868 0-1.4-.518 -.532-.518-.532-1.47 0-.952.532-1.484 .532-.532 1.344-.532 1.204 0 1.736.924l-.868.448q-.14-.28-.336-.392 -.196-.112-.392-.112 -.84 0-.84 1.148 0 .532.196.812 .252.308.644.308Zm3.724 0q.588 0 .784-.56l.812.42q-.252.448-.7.728 -.448.28-.98.28 -.896 0-1.4-.532 -.532-.504-.532-1.456 0-.896.532-1.484 .532-.532 1.372-.532 1.176 0 1.68.924l-.84.448q-.14-.28-.336-.392 -.196-.112-.392-.112 -.868 0-.868 1.148 0 .504.224.812 .224.308.644.308Z" fill="#000"></path></svg>