<?xml version="1.0" encoding="UTF-8"?><svg version="1.1" viewBox="0 -22.6226 11.998 11.7166" xmlns="http://www.w3.org/2000/svg" xmlns:xlink="http://www.w3.org/1999/xlink"><path d="M6.006-22.6226q-1.666 0-3.024.812 -1.358.812-2.17 2.184 -.812 1.372-.812 3.01 0 1.96 1.148 3.528 1.148 1.568 2.954 2.17 .196.042.308-.056 .112-.098.112-.238 -.014-.028-.014-.42v-.7l-.182.042q-.168 0-.434.014 -.266.014-.546-.042 -.28-.056-.518-.238 -.238-.182-.336-.476l-.084-.182q-.084-.196-.252-.406 -.168-.21-.336-.294l-.056-.042q-.042-.042-.098-.084 -.056-.042-.07-.112 -.014-.07.042-.098 .056-.028.224-.028l.154.014q.168.042.392.196 .224.154.378.406 .196.322.434.49 .238.168.504.168 .266 0 .448-.042 .182-.042.35-.112 .084-.532.378-.812 -.462-.028-.798-.14 -.336-.112-.728-.308 -.392-.196-.63-.518 -.238-.322-.406-.826 -.168-.504-.168-1.162 0-.938.616-1.61 -.28-.714.07-1.596 .21-.084.658.098 .448.182.658.308 .21.126.322.21 .742-.21 1.512-.21 .77 0 1.498.21l.294-.182q.294-.196.714-.35 .42-.154.644-.084 .35.882.056 1.596 .616.672.616 1.61 .028.672-.154 1.176 -.182.504-.42.812 -.238.308-.63.518 -.392.21-.742.308 -.35.098-.798.14 .406.35.406 1.106v1.652q0 .14.098.238 .098.098.308.056 1.806-.602 2.954-2.17 1.148-1.568 1.148-3.528 0-1.638-.798-3.01 -.798-1.372-2.184-2.184 -1.386-.812-3.01-.812Zm-3.738 8.624q.028-.056-.042-.098 -.084-.014-.112.014 -.014.056.056.098 .07.042.098-.014Zm.252.266q.056-.042-.021-.119 -.077-.077-.126-.035 -.049.042.021.126 .07.084.126.028Zm.224.35q.084-.056.014-.154 -.07-.098-.14-.049 -.07.049 0 .147 .07.098.126.056Zm.336.322q.056-.056-.035-.147 -.091-.091-.154-.021 -.063.07.028.154 .091.084.161.014Zm.448.196q.014-.084-.105-.119 -.119-.035-.147.049 -.028.084.091.126 .119.042.161-.056Zm.49.042q0-.098-.133-.091 -.133.007-.133.098 0 .091.133.084 .133-.007.133-.091Zm.448-.07q-.014-.098-.14-.077 -.126.021-.112.119 .014.098.14.056 .126-.042.112-.098Z" fill="#000"></path></svg>