<?xml version="1.0" standalone="no"?>
<!DOCTYPE svg PUBLIC "-//W3C//DTD SVG 20010904//EN"
 "http://www.w3.org/TR/2001/REC-SVG-20010904/DTD/svg10.dtd">
<svg version="1.0" xmlns="http://www.w3.org/2000/svg"
 width="594.000000pt" height="526.000000pt" viewBox="0 0 594.000000 526.000000"
 preserveAspectRatio="xMidYMid meet">

<g transform="translate(0.000000,526.000000) scale(0.100000,-0.100000)"
fill="#000000" stroke="none">
<path d="M0 5170 l0 -90 2970 0 2970 0 0 90 0 90 -2970 0 -2970 0 0 -90z
m5325 -60 c3 -5 1 -10 -4 -10 -6 0 -11 5 -11 10 0 6 2 10 4 10 3 0 8 -4 11
-10z"/>
<path d="M0 4970 l0 -59 35 24 c97 65 339 59 431 -10 47 -36 62 -78 64 -175 2
-144 1 -172 -10 -165 -5 3 -10 43 -10 87 0 100 -14 147 -58 198 -54 64 -103
85 -197 85 -102 0 -160 -21 -214 -80 l-41 -45 0 -135 c0 -113 2 -135 15 -135
21 0 19 -27 -3 -39 -19 -11 -10 -25 23 -35 12 -3 9 -4 -7 -2 -26 3 -28 0 -28
-30 l0 -34 291 0 c253 0 290 2 285 15 -7 20 18 19 34 0 10 -13 54 -15 273 -15
l260 0 -22 24 c-13 13 -18 27 -13 30 6 3 12 -1 16 -9 3 -8 12 -15 20 -15 7 0
16 -7 20 -15 5 -13 177 -15 1405 -15 971 0 1402 3 1406 10 4 7 11 8 18 2 7 -5
84 -9 172 -9 135 0 162 3 172 16 8 10 12 12 13 4 0 -18 20 -16 20 2 0 22 17
18 23 -5 5 -18 7 -19 37 -4 28 15 33 15 48 0 15 -13 54 -15 252 -16 129 0 253
4 275 10 51 12 170 13 213 1 17 -5 51 -22 75 -38 l42 -28 303 3 c178 1 302 6
302 12 0 5 -131 10 -320 12 -239 2 -322 6 -332 16 -10 9 54 12 320 12 l332 0
0 35 c0 33 -2 35 -27 30 l-28 -5 28 11 c32 13 39 44 7 34 -15 -5 -20 -2 -20
10 0 9 9 19 20 22 19 5 20 14 20 126 0 109 -2 124 -24 162 -63 107 -218 145
-351 86 -105 -46 -137 -103 -143 -248 -2 -57 -8 -103 -13 -103 -5 0 -9 55 -9
123 0 140 14 185 71 228 91 69 354 64 439 -8 l30 -25 0 66 0 66 -2970 0 -2970
0 0 -60z m5330 -1 c0 -16 -4 -29 -8 -29 -5 0 -8 15 -8 34 1 41 16 37 16 -5z
m-4349 -5 c67 -20 117 -56 135 -100 15 -36 21 -274 7 -274 -5 0 -8 37 -8 83
-1 99 -16 147 -64 200 -102 113 -296 117 -401 8 -59 -60 -92 -169 -57 -185 10
-5 10 -7 0 -12 -8 -3 -13 -24 -13 -49 0 -24 -5 -47 -11 -50 -7 -5 -10 34 -7
132 3 135 4 141 31 176 15 20 38 42 50 49 73 38 243 50 338 22z m603 2 c60
-18 109 -52 132 -90 13 -23 18 -57 20 -158 1 -72 -2 -128 -7 -128 -5 0 -9 35
-9 79 0 128 -39 206 -128 258 -41 25 -57 28 -132 28 -74 0 -92 -4 -145 -30
-42 -21 -69 -43 -90 -73 l-30 -43 24 -18 c15 -12 21 -23 16 -31 -6 -10 -11 -9
-21 5 -22 30 -29 9 -31 -87 -2 -98 -13 -136 -13 -47 -1 30 -1 83 -2 119 -1 36
2 79 6 96 10 44 65 93 128 115 66 23 214 25 282 5z m644 -11 c23 -9 58 -36 77
-58 l35 -41 0 -139 c0 -77 -3 -137 -7 -134 -3 4 -5 39 -4 79 6 225 -151 345
-366 280 -119 -37 -175 -122 -175 -263 1 -44 3 -83 6 -88 3 -5 -1 -11 -9 -15
-13 -5 -15 14 -12 132 2 117 5 143 21 167 31 48 84 83 146 96 61 14 241 4 288
-16z m576 9 c67 -19 111 -52 132 -101 15 -35 20 -283 7 -283 -5 0 -8 44 -9 98
-1 110 -14 150 -66 201 -61 60 -103 76 -198 75 -64 -1 -96 -6 -130 -22 -103
-48 -152 -140 -145 -274 2 -43 -1 -78 -6 -78 -5 0 -9 55 -9 123 1 177 24 221
137 257 75 24 206 26 287 4z m604 1 c28 -9 65 -28 83 -42 50 -43 59 -76 57
-220 l-1 -128 -7 100 c-5 84 -11 108 -35 154 -47 85 -125 131 -227 131 -66 0
-166 -35 -205 -72 -38 -37 -77 -121 -70 -155 2 -13 0 -26 -5 -29 -5 -3 -6 -30
-2 -61 5 -41 4 -54 -5 -49 -16 10 -14 211 3 259 8 21 22 47 31 57 19 21 76 50
120 61 55 13 209 10 263 -6z m647 -20 c88 -44 99 -69 104 -227 2 -86 0 -128
-8 -128 -6 0 -10 31 -10 83 0 98 -19 158 -64 205 -57 59 -101 77 -197 77 -145
0 -230 -57 -265 -178 -9 -33 -15 -84 -14 -122 1 -36 -1 -68 -5 -72 -4 -5 -6
56 -4 134 3 124 6 145 24 169 53 71 123 95 274 91 94 -2 111 -5 165 -32z m595
8 c51 -23 84 -55 99 -96 12 -32 15 -285 4 -273 -5 4 -8 42 -9 85 -1 99 -24
167 -72 213 -49 47 -102 74 -112 58 -6 -9 -10 -8 -18 5 -14 27 -132 15 -206
-20 -93 -44 -146 -156 -133 -282 3 -31 1 -55 -5 -59 -6 -4 -8 42 -6 134 3 123
6 144 24 168 54 73 123 95 279 90 83 -2 121 -8 155 -23z m559 16 c68 -14 112
-45 139 -99 19 -39 22 -60 22 -167 0 -68 -4 -123 -9 -123 -5 0 -11 46 -13 103
-5 115 -23 164 -80 212 -61 52 -113 68 -194 62 -85 -6 -147 -32 -191 -78 -47
-50 -65 -102 -73 -209 l-7 -95 -1 133 c-2 143 4 166 52 211 58 54 226 78 355
50z m-4646 -6 c9 -9 -13 -34 -24 -27 -14 8 -11 34 4 34 8 0 17 -3 20 -7z m602
-3 c3 -6 -1 -13 -10 -16 -19 -8 -30 0 -20 15 8 14 22 14 30 1z m610 -1 c10
-15 -1 -23 -20 -15 -9 3 -13 10 -10 16 8 13 22 13 30 -1z m605 -4 c0 -8 -7
-15 -15 -15 -8 0 -15 7 -15 15 0 8 7 15 15 15 8 0 15 -7 15 -15z m605 4 c10
-15 -1 -23 -20 -15 -9 3 -13 10 -10 16 8 13 22 13 30 -1z m605 -4 c0 -8 -6
-15 -14 -15 -8 0 -16 7 -20 15 -4 10 1 15 14 15 11 0 20 -7 20 -15z m605 4
c10 -15 -1 -23 -20 -15 -9 3 -13 10 -10 16 8 13 22 13 30 -1z m605 -4 c0 -8
-7 -15 -15 -15 -8 0 -15 7 -15 15 0 8 7 15 15 15 8 0 15 -7 15 -15z m600 2 c0
-8 -3 -17 -7 -20 -9 -9 -34 13 -27 24 8 14 34 11 34 -4z m-5120 -86 c0 -20 -6
-73 -14 -118 -7 -45 -11 -85 -8 -88 7 -7 49 94 64 153 11 45 31 63 50 44 16
-16 4 -49 -51 -140 -27 -46 -44 -82 -37 -80 7 2 41 36 75 76 34 39 68 72 76
72 31 0 13 -37 -39 -78 -53 -42 -112 -102 -101 -102 4 0 34 20 69 44 34 24 73
47 85 51 19 6 22 4 19 -15 -2 -17 -18 -28 -67 -46 -36 -14 -67 -26 -69 -29 -2
-2 19 -16 47 -32 28 -15 51 -34 51 -42 0 -11 -3 -11 -15 -1 -8 7 -15 9 -15 4
0 -4 -9 2 -20 14 -12 12 -27 22 -35 22 -8 0 -15 5 -15 10 0 6 -4 10 -9 10 -5
0 -7 -9 -4 -20 4 -15 0 -20 -16 -20 -14 0 -19 5 -15 15 4 9 0 15 -10 15 -25 0
-19 -29 13 -61 16 -16 26 -29 21 -29 -14 0 -60 61 -60 80 0 11 7 23 16 28 25
14 6 35 -27 30 -15 -3 -26 -1 -23 3 2 4 -2 13 -9 21 -14 15 -93 145 -102 169
-6 17 18 43 35 37 6 -2 25 -44 41 -93 49 -146 58 -139 37 31 -10 86 -10 96 7
114 17 19 19 19 37 4 11 -11 18 -31 18 -53z m593 37 c7 -11 8 -45 1 -106 -8
-81 -7 -88 7 -79 9 5 26 41 38 78 22 69 41 86 59 52 10 -16 1 -37 -50 -120
-18 -30 -18 -33 -3 -33 9 0 36 21 59 47 26 28 47 44 54 39 23 -14 11 -33 -58
-90 -39 -33 -68 -61 -66 -63 5 -5 48 16 56 27 5 8 85 50 95 50 3 0 5 -10 5
-23 0 -21 -11 -27 -85 -52 -67 -22 -83 -31 -74 -41 11 -14 4 -34 -12 -34 -5 0
-9 7 -9 16 0 9 -6 14 -12 11 -7 -2 -12 -13 -11 -23 1 -18 1 -18 -12 -1 -13 18
-13 18 -19 -1 -4 -11 -14 -26 -23 -34 -14 -11 -14 -9 1 14 17 26 15 48 -5 48
-5 0 -9 -7 -9 -15 0 -17 -16 -20 -25 -5 -13 21 17 42 51 35 19 -3 35 -1 39 5
3 6 11 8 16 5 5 -4 9 -1 9 5 0 7 -8 9 -22 5 -32 -10 -30 -10 -58 -1 -14 5 -56
36 -95 69 -63 55 -77 78 -58 97 3 3 36 -29 74 -70 38 -41 69 -69 69 -62 0 7
-21 47 -46 89 -47 78 -54 118 -19 118 15 0 23 -13 36 -55 32 -103 39 -117 50
-98 6 11 6 48 -1 104 -8 65 -8 89 1 100 15 18 38 15 52 -8z m606 9 c11 -15 6
-116 -10 -177 -5 -19 -9 -46 -9 -60 1 -24 1 -25 16 -5 8 11 26 57 41 103 14
45 30 85 35 88 6 4 17 -1 26 -10 16 -16 15 -21 -11 -69 -50 -90 -91 -146 -109
-147 -23 0 -32 -18 -18 -35 9 -11 16 -11 30 -3 9 6 25 8 34 5 21 -8 21 -47 0
-47 -10 0 -14 6 -10 15 3 9 0 15 -9 15 -18 0 -19 -14 -5 -41 8 -15 7 -21 -5
-25 -8 -3 -13 -9 -10 -13 7 -12 -29 -9 -37 3 -5 8 -11 7 -20 -2 -25 -25 -30
-11 -5 16 29 31 36 62 12 62 -9 0 -12 -6 -9 -15 4 -9 0 -15 -10 -15 -24 0 -20
41 4 47 25 7 25 15 1 28 -39 21 -151 117 -151 130 0 8 5 17 12 21 11 7 22 -3
105 -101 23 -27 45 -46 49 -43 3 4 -9 31 -28 60 -19 29 -45 72 -58 96 -22 40
-23 43 -7 59 23 23 31 13 65 -85 38 -110 57 -128 48 -47 -19 165 -19 187 -5
196 20 12 35 11 48 -4z m599 1 c15 -15 16 -100 1 -167 -6 -28 -9 -61 -7 -73 3
-19 8 -14 26 26 12 28 29 74 38 103 18 60 31 74 50 48 15 -21 -2 -60 -68 -157
-56 -84 -70 -80 -141 34 -60 96 -68 122 -41 132 24 9 29 3 58 -88 16 -47 35
-93 43 -103 13 -16 14 -12 8 37 -17 158 -18 202 -4 211 18 12 23 11 37 -3z
m614 -5 c13 -16 13 -30 -2 -131 -9 -65 -12 -111 -7 -109 6 2 23 39 39 82 37
98 41 108 56 113 26 8 23 -45 -6 -95 -93 -157 -109 -165 -165 -80 -51 76 -81
142 -74 162 15 37 38 9 68 -80 17 -49 37 -97 46 -105 14 -14 15 -10 8 40 -20
155 -23 196 -13 208 14 17 32 15 50 -5z m598 2 c13 -15 11 -78 -6 -197 -10
-72 8 -58 39 30 40 110 45 122 56 122 6 0 14 -8 20 -17 10 -19 -17 -76 -81
-170 -45 -67 -63 -60 -131 49 -60 96 -68 122 -40 132 22 9 33 -4 44 -52 11
-53 57 -157 65 -149 3 3 1 43 -5 88 -15 108 -14 166 2 172 20 9 24 8 37 -8z
m610 0 c12 -15 5 -111 -16 -227 -12 -64 23 -8 54 87 30 90 54 117 67 76 7 -22
-9 -57 -69 -148 -54 -83 -72 -83 -122 -5 -67 104 -85 144 -73 158 22 27 38 14
55 -43 22 -79 55 -154 64 -148 4 2 6 15 4 27 -22 166 -25 210 -14 223 16 19
34 19 50 0z m327 9 c-3 -3 -12 -4 -19 -1 -8 3 -5 6 6 6 11 1 17 -2 13 -5z
m274 -10 c10 -13 11 -34 1 -112 -17 -139 -16 -158 9 -102 11 25 29 73 41 108
20 62 41 80 53 43 6 -21 -17 -73 -70 -156 -30 -47 -35 -51 -92 -63 -56 -11
-65 -10 -119 10 -60 22 -74 33 -74 56 0 19 13 15 79 -28 60 -39 82 -48 80 -32
0 4 -31 32 -68 62 -47 39 -66 60 -63 73 2 9 8 17 12 17 8 0 109 -112 123 -136
4 -8 15 -14 24 -14 13 0 13 4 -3 28 -93 141 -113 197 -70 197 14 0 22 -10 28
-35 5 -19 21 -65 35 -102 26 -67 44 -82 38 -30 -24 180 -25 204 -14 218 15 18
33 18 50 -2z m609 1 c10 -12 10 -36 1 -112 -7 -54 -14 -109 -18 -123 -4 -20
-3 -23 7 -13 7 6 27 54 45 105 32 93 57 120 70 79 7 -22 -19 -79 -71 -152 -36
-52 -28 -82 9 -33 50 65 114 127 125 120 21 -13 12 -30 -31 -63 -67 -52 -111
-93 -98 -93 7 0 42 18 78 40 76 46 83 47 83 21 0 -15 -15 -25 -57 -40 -32 -12
-65 -25 -73 -30 -9 -5 -28 -2 -49 6 -19 8 -45 13 -58 10 -13 -2 -23 1 -23 7 0
6 -14 31 -31 56 -16 25 -41 67 -55 94 -23 44 -24 50 -10 64 23 23 37 4 66 -83
12 -38 28 -81 36 -95 l13 -25 1 28 c0 16 -5 70 -12 122 -9 75 -9 97 2 110 16
19 34 19 50 0z m607 -4 c11 -18 11 -29 -12 -201 -4 -30 -5 -52 -1 -49 4 4 24
51 45 105 36 97 53 116 74 83 7 -12 -4 -38 -47 -109 -31 -51 -56 -100 -56
-109 0 -9 9 -22 20 -29 23 -14 27 -42 5 -42 -8 0 -15 7 -15 15 0 8 -4 15 -10
15 -5 0 -10 -10 -10 -22 0 -18 -2 -20 -9 -9 -5 8 -7 29 -4 48 4 21 2 33 -6 33
-11 0 -15 -17 -12 -55 1 -11 -5 -29 -14 -40 -16 -20 -16 -20 -6 2 15 30 14 43
-4 43 -9 0 -12 -6 -9 -15 7 -17 -21 -21 -31 -5 -10 16 14 40 38 40 14 0 18 3
11 10 -7 7 -20 7 -34 2 -16 -6 -34 -3 -61 10 -21 10 -45 18 -54 18 -17 0 -55
34 -55 50 0 18 20 11 82 -30 34 -22 66 -40 70 -40 20 0 3 20 -52 64 -64 49
-79 71 -63 87 11 11 92 -67 123 -117 8 -13 20 -24 27 -24 15 0 17 16 4 24 -15
10 -101 161 -101 178 0 18 29 33 41 21 4 -4 19 -43 33 -87 15 -43 34 -90 42
-105 16 -29 17 -43 -6 159 -4 36 -3 73 2 83 11 22 40 22 55 -2z m-5608 -166
c24 -25 47 -45 52 -45 6 0 8 -4 5 -9 -3 -5 4 -20 15 -35 11 -14 18 -26 14 -26
-11 0 -150 123 -149 132 3 24 5 28 12 28 4 0 27 -20 51 -45z m1545 30 c4 -10
-19 -35 -70 -77 -42 -34 -71 -64 -65 -66 6 -2 41 15 77 38 45 28 70 38 76 32
20 -20 0 -38 -58 -56 -33 -10 -64 -22 -70 -27 -6 -5 -18 -3 -29 5 -18 13 -18
15 9 47 51 61 107 119 115 119 5 0 11 -7 15 -15z m338 -113 c36 -43 26 -40
-36 10 -93 78 -99 85 -92 105 6 15 14 11 54 -33 26 -27 59 -65 74 -82z m271
114 c4 -9 -23 -38 -73 -80 -44 -36 -83 -66 -87 -66 -4 0 -3 4 2 8 6 4 26 27
46 52 79 98 101 115 112 86z m294 -67 c56 -66 61 -75 44 -82 -24 -12 -138 29
-151 54 -18 32 6 29 71 -11 103 -64 108 -51 12 29 -40 33 -63 59 -63 72 0 33
20 18 87 -62z m311 60 c1 -8 -30 -41 -70 -73 -85 -70 -77 -85 13 -27 72 47 82
49 77 20 -2 -15 -21 -28 -75 -49 -40 -15 -75 -25 -78 -21 -4 3 -5 -7 -3 -24 2
-21 -2 -30 -14 -33 -13 -2 -16 1 -12 12 4 11 1 16 -10 16 -9 0 -16 -5 -16 -11
0 -5 -4 -8 -9 -5 -5 4 -12 0 -14 -6 -3 -8 -6 -6 -6 5 -1 21 -31 23 -31 1 0 -9
-6 -14 -12 -11 -19 6 -16 28 4 41 14 8 23 7 39 -2 13 -8 24 -10 28 -5 3 5 14
12 24 16 10 4 15 11 12 17 -3 5 -2 10 3 10 5 0 13 9 18 19 15 33 106 132 118
128 6 -2 12 -10 14 -18z m242 2 c0 -3 21 -28 46 -56 74 -83 71 -92 -10 -26
-70 58 -86 78 -70 94 7 7 34 -2 34 -12z m358 -2 c2 -13 -145 -145 -153 -137
-2 1 27 38 63 81 63 74 84 87 90 56z m278 -36 c27 -32 59 -68 71 -80 43 -45 1
-22 -71 38 -55 46 -72 66 -69 80 3 11 9 19 13 19 4 0 30 -26 56 -57z m331 36
c1 -8 -31 -41 -72 -74 -115 -93 -113 -84 9 52 39 43 59 50 63 22z m598 -1 c0
-8 -33 -43 -73 -77 -106 -88 -106 -83 -3 37 52 60 76 73 76 40z m261 -10 c54
-61 106 -128 99 -128 -6 0 -82 61 -143 115 -12 11 -7 45 7 45 4 0 21 -15 37
-32z m957 18 c4 -9 -23 -38 -73 -80 -44 -36 -82 -66 -85 -66 -3 0 14 26 39 58
80 100 107 120 119 88z m-5792 -107 c79 -51 75 -47 59 -62 -7 -7 -10 -7 -7 -1
4 7 -12 18 -41 28 -85 31 -92 35 -92 56 0 28 8 26 81 -21z m611 -3 c37 -22 65
-43 62 -48 -3 -4 -14 -4 -24 2 -10 5 -25 10 -32 9 -7 0 -1 -5 15 -11 35 -12
36 -42 2 -44 -16 -1 -25 3 -25 13 0 9 -8 22 -17 29 -15 11 -15 13 -3 14 13 0
13 1 0 10 -27 17 -42 12 -35 -12 7 -21 6 -22 -9 -7 -9 8 -19 32 -23 53 -7 46
-3 46 89 -8z m601 1 c37 -24 65 -46 61 -50 -4 -3 -12 -3 -18 1 -6 4 -35 16
-65 27 -36 13 -57 27 -62 43 -12 33 6 28 84 -21z m607 -1 c38 -23 67 -45 64
-48 -2 -3 -35 7 -72 22 -50 20 -68 32 -70 48 -2 12 -1 22 2 22 3 0 37 -20 76
-44z m358 23 c-2 -14 -17 -27 -48 -39 -25 -9 -57 -22 -72 -28 -44 -18 -33 -6
39 43 77 51 86 54 81 24z m854 -24 c82 -51 80 -54 -12 -22 -51 17 -66 27 -68
45 -2 12 -1 22 2 22 3 0 38 -20 78 -45z m356 24 c-2 -15 -21 -28 -75 -49 -40
-15 -73 -25 -73 -21 1 7 131 91 143 91 5 0 7 -9 5 -21z m247 -24 c80 -51 77
-54 -15 -21 -49 18 -66 29 -68 45 -2 11 0 21 5 21 4 0 40 -20 78 -45z m365 25
c0 -11 -8 -23 -17 -27 -10 -3 -44 -16 -75 -28 -32 -12 -60 -20 -62 -17 -6 5
133 92 147 92 4 0 7 -9 7 -20z m598 -1 c-2 -15 -21 -28 -75 -49 -40 -15 -73
-25 -73 -21 0 7 131 90 143 91 5 0 7 -9 5 -21z m247 -24 c79 -50 77 -54 -15
-22 -51 18 -66 28 -68 45 -2 12 0 22 5 22 4 0 40 -20 78 -45z m972 29 c3 -9 0
-20 -8 -25 -13 -9 -85 -32 -102 -33 -5 -1 -15 -9 -22 -19 -9 -13 -15 -15 -20
-6 -4 6 -2 15 6 20 8 4 39 24 69 43 63 41 68 42 77 20z m-5679 -110 c2 -12 -7
-32 -20 -46 -13 -13 -17 -17 -10 -8 15 20 16 60 1 60 -6 0 -9 -6 -6 -14 7 -16
-19 -30 -28 -15 -4 5 -3 18 0 30 9 28 59 23 63 -7z m1810 14 c8 -8 15 -8 26 1
8 7 24 10 36 6 24 -8 27 -45 4 -45 -10 0 -14 6 -10 15 3 9 0 15 -9 15 -8 0
-15 -4 -15 -9 0 -5 -9 -11 -20 -14 -13 -3 -20 0 -20 9 0 8 -7 14 -16 14 -10 0
-14 -6 -10 -15 3 -9 0 -15 -9 -15 -15 0 -21 31 -8 43 10 11 38 8 51 -5z m1209
-18 c1 -14 0 -18 -3 -7 -7 21 -34 23 -34 2 0 -8 -4 -15 -8 -15 -17 0 -21 13
-11 32 15 28 53 20 56 -12z m71 18 c17 -17 15 -38 -4 -38 -10 0 -14 6 -10 15
3 9 0 15 -8 15 -8 0 -16 -6 -19 -12 -2 -7 -7 -10 -11 -7 -3 3 -4 14 0 23 7 19
35 21 52 4z m534 1 c3 -8 10 -8 26 2 17 10 26 11 40 3 20 -13 23 -35 5 -41 -7
-3 -13 2 -13 11 0 9 -7 16 -15 16 -8 0 -15 -4 -15 -8 0 -5 -7 -9 -15 -9 -8 0
-15 4 -15 9 0 4 -7 8 -15 8 -8 0 -15 -7 -15 -15 0 -8 -4 -15 -9 -15 -17 0 -23
20 -11 35 15 18 47 20 52 4z m602 -5 c4 -9 4 -19 1 -22 -3 -3 -5 0 -5 6 0 7
-7 12 -15 12 -8 0 -15 -7 -15 -15 0 -17 -16 -20 -25 -5 -9 15 14 40 35 40 10
0 21 -7 24 -16z m76 1 c12 -15 6 -35 -11 -35 -5 0 -9 7 -9 16 0 9 -6 14 -12
11 -7 -2 -12 -11 -12 -20 1 -9 -2 -14 -7 -11 -11 6 -12 38 -2 47 11 12 40 8
53 -8z m616 -14 c11 -21 12 -21 16 -5 3 14 5 12 10 -9 5 -25 2 -29 -23 -34
l-28 -5 22 -18 c12 -10 20 -21 17 -24 -9 -9 -50 5 -44 15 3 5 0 9 -5 9 -6 0
-11 -7 -11 -15 0 -21 -20 -19 -20 3 -1 15 -2 15 -15 -2 -11 -15 -15 -16 -15
-5 0 8 6 21 13 28 10 11 8 13 -10 8 -20 -4 -21 -3 -12 14 10 20 7 23 -23 20
-12 -2 -18 5 -18 18 0 25 12 29 80 27 47 -1 56 -4 66 -25z m441 -13 c-3 -7 -5
-2 -5 12 0 14 2 19 5 13 2 -7 2 -19 0 -25z m-1466 -8 c29 -16 19 -70 -14 -70
-5 0 -1 7 7 16 9 8 16 20 16 25 0 12 -17 12 -25 -1 -10 -16 -25 -11 -25 8 0
32 11 37 41 22z m-3614 -16 c7 -19 -7 -46 -28 -52 -9 -2 -8 1 4 11 17 15 23
37 9 37 -4 0 -13 -5 -20 -12 -14 -14 -38 4 -28 21 11 17 56 13 63 -5z m112 2
c15 -18 -5 -34 -22 -17 -15 15 -27 14 -27 -4 0 -7 8 -19 18 -25 10 -7 11 -10
3 -7 -21 5 -35 32 -28 51 8 20 40 21 56 2z m489 -12 c2 -11 -6 -28 -18 -39
-11 -10 -20 -13 -20 -8 0 6 7 13 15 17 8 3 15 12 15 21 0 17 -16 20 -25 5 -11
-17 -25 -11 -25 11 0 29 54 23 58 -7z m122 12 c0 -23 -22 -31 -35 -12 -11 14
-13 15 -18 2 -4 -9 3 -22 16 -31 12 -8 17 -15 11 -15 -19 0 -45 36 -38 54 8
21 64 22 64 2z m480 10 c0 -2 3 -11 6 -19 5 -15 -20 -47 -38 -47 -6 0 0 9 13
19 13 11 21 23 17 27 -4 4 -15 1 -23 -6 -18 -15 -42 0 -31 19 7 10 56 16 56 7z
m126 -7 c11 -19 -13 -34 -31 -19 -8 7 -18 10 -21 7 -10 -10 7 -28 40 -43 24
-10 26 -13 10 -14 -37 0 -78 52 -57 73 10 11 51 8 59 -4z m478 3 c2 -4 -7 -12
-20 -19 -24 -11 -41 -2 -29 17 7 12 42 13 49 2z m126 -12 c0 -21 -15 -27 -25
-10 -11 18 -27 11 -22 -10 3 -11 1 -18 -4 -14 -10 6 -12 38 -2 47 3 4 17 7 30
7 16 0 23 -6 23 -20z m237 -34 c-32 -32 -39 -33 -35 -3 2 15 9 21 22 19 15 -3
18 1 13 19 -5 20 -5 21 10 6 14 -14 13 -18 -10 -41z m251 30 c2 -10 -1 -23 -7
-29 -7 -7 -8 -3 -4 12 5 21 -11 30 -22 11 -11 -17 -25 -11 -25 11 0 16 5 20
27 17 18 -2 29 -10 31 -22z m112 4 c0 -23 -10 -26 -28 -8 -6 6 -15 8 -19 4
-12 -12 36 -46 66 -47 18 -1 20 -3 8 -6 -26 -7 -75 16 -82 38 -9 26 2 39 31
39 17 0 24 -5 24 -20z m488 -7 c4 -24 -31 -53 -63 -52 -13 0 -8 4 13 10 31 9
51 33 38 46 -3 3 -12 0 -20 -6 -16 -13 -32 2 -21 20 12 18 50 6 53 -18z m119
12 c8 -22 -4 -30 -22 -15 -9 7 -18 10 -21 7 -13 -13 7 -37 38 -46 21 -6 26
-10 13 -10 -42 -2 -82 48 -58 72 12 13 44 7 50 -8z m600 0 c8 -22 -4 -30 -22
-15 -22 18 -32 3 -16 -23 13 -20 13 -21 -2 -8 -17 14 -22 42 -10 54 12 13 44
7 50 -8z m491 -9 c2 -10 -2 -23 -8 -30 -9 -8 -11 -6 -5 12 7 24 -4 29 -22 11
-15 -15 -34 -3 -26 17 8 22 57 14 61 -10z m122 4 c0 -23 -4 -24 -31 -10 -25
14 -27 -14 -1 -29 9 -6 12 -11 6 -11 -6 0 -18 8 -28 19 -23 25 -11 51 25 51
22 0 29 -5 29 -20z m488 -7 c2 -16 -5 -26 -27 -37 -16 -9 -38 -16 -48 -15 -10
0 -4 5 13 10 33 9 61 35 51 46 -4 3 -14 0 -22 -7 -18 -15 -42 1 -30 20 12 20
60 7 63 -17z m115 12 c8 -20 -11 -29 -29 -14 -23 19 -29 2 -8 -22 19 -22 19
-22 -3 -10 -22 11 -30 40 -16 54 12 13 51 7 56 -8z m-5204 -60 c0 -5 -4 -2
-10 8 -6 9 -15 15 -20 12 -5 -4 -7 -11 -4 -16 4 -5 1 -9 -4 -9 -14 0 -14 3 1
35 l12 26 13 -23 c7 -13 12 -27 12 -33z m596 24 c4 -11 4 -23 1 -26 -3 -4 -6
2 -6 11 0 12 -5 16 -15 12 -15 -5 -20 5 -8 17 12 12 22 7 28 -14z m1203 9 c-2
-6 -10 -14 -16 -16 -7 -2 -10 2 -6 12 7 18 28 22 22 4z m252 -13 c-7 -8 -16
-15 -21 -15 -5 0 -1 8 9 18 20 22 31 19 12 -3z m949 4 c-16 -10 -23 -4 -14 10
3 6 11 8 17 5 6 -4 5 -9 -3 -15z m619 7 c-2 -1 -12 -8 -22 -16 -18 -14 -19
-14 -7 8 7 12 17 20 22 16 6 -3 9 -7 7 -8z m602 -7 c0 -5 -6 -8 -12 -6 -7 1
-12 -4 -10 -11 1 -8 -2 -11 -8 -7 -7 4 -7 12 0 26 11 19 30 18 30 -2z m1215 0
c4 -11 4 -23 1 -26 -3 -4 -6 1 -6 10 0 23 -20 22 -21 0 0 -11 -2 -13 -6 -5 -6
16 3 42 16 42 5 0 13 -9 16 -21z m-5058 -25 c-3 -3 -12 -4 -19 -1 -8 3 -5 6 6
6 11 1 17 -2 13 -5z m416 -1 c-7 -2 -19 -2 -25 0 -7 3 -2 5 12 5 14 0 19 -2
13 -5z m220 0 c-7 -2 -21 -2 -30 0 -10 3 -4 5 12 5 17 0 24 -2 18 -5z m44 1
c-3 -3 -12 -4 -19 -1 -8 3 -5 6 6 6 11 1 17 -2 13 -5z m336 -1 c-7 -2 -19 -2
-25 0 -7 3 -2 5 12 5 14 0 19 -2 13 -5z m614 1 c-3 -3 -12 -4 -19 -1 -8 3 -5
6 6 6 11 1 17 -2 13 -5z m190 0 c-3 -3 -12 -4 -19 -1 -8 3 -5 6 6 6 11 1 17
-2 13 -5z m420 0 c-3 -3 -12 -4 -19 -1 -8 3 -5 6 6 6 11 1 17 -2 13 -5z m843
2 c0 -2 -9 -6 -20 -9 -11 -3 -18 -1 -14 4 5 9 34 13 34 5z m367 -2 c-3 -3 -12
-4 -19 -1 -8 3 -5 6 6 6 11 1 17 -2 13 -5z m201 -1 c-10 -2 -26 -2 -35 0 -10
3 -2 5 17 5 19 0 27 -2 18 -5z m395 0 c-7 -2 -19 -2 -25 0 -7 3 -2 5 12 5 14
0 19 -2 13 -5z m194 1 c-3 -3 -12 -4 -19 -1 -8 3 -5 6 6 6 11 1 17 -2 13 -5z
m606 -1 c-7 -2 -19 -2 -25 0 -7 3 -2 5 12 5 14 0 19 -2 13 -5z"/>
<path d="M825 4691 c-3 -5 -1 -12 5 -16 5 -3 10 1 10 9 0 18 -6 21 -15 7z"/>
<path d="M860 4684 c0 -8 5 -12 10 -9 6 4 8 11 5 16 -9 14 -15 11 -15 -7z"/>
<path d="M882 4659 c-12 -18 -11 -20 5 -17 10 2 19 11 21 21 5 23 -10 21 -26
-4z"/>
<path d="M1445 4571 c-3 -5 -1 -12 5 -16 5 -3 10 1 10 9 0 18 -6 21 -15 7z"/>
<path d="M5110 4579 c0 -5 5 -7 10 -4 6 3 10 8 10 11 0 2 -4 4 -10 4 -5 0 -10
-5 -10 -11z"/>
<path d="M1796 4401 c-5 -8 -268 -11 -902 -11 -589 0 -894 -3 -894 -10 0 -7
306 -10 897 -10 493 0 894 -2 891 -5 -3 -3 -406 -5 -896 -5 l-892 0 0 -1895 0
-1895 321 0 c176 0 324 -2 329 -5 5 -3 18 5 30 17 20 21 22 22 31 6 9 -16 80
-17 1120 -18 611 0 1121 3 1135 6 13 3 24 12 24 20 0 19 13 17 43 -6 24 -19
40 -20 315 -20 183 0 293 4 297 10 3 5 1 10 -6 10 -7 0 -10 2 -8 5 3 2 24 -2
47 -10 35 -12 172 -15 850 -15 445 0 817 3 827 6 13 5 16 4 11 -5 -6 -9 0 -10
21 -6 49 11 51 13 46 39 -3 14 -1 26 4 26 14 0 40 -23 45 -39 6 -20 20 -21
291 -22 l167 0 0 1896 0 1895 -295 0 c-162 0 -295 -3 -295 -6 0 -3 13 -22 29
-42 15 -20 36 -56 45 -80 22 -59 21 -189 -3 -274 -13 -46 -16 -70 -9 -74 7 -4
4 -10 -6 -16 -14 -8 -17 -24 -15 -91 1 -45 6 -90 11 -100 5 -10 5 -24 0 -34
-8 -13 -11 -11 -17 15 -3 18 -10 30 -15 27 -11 -7 -22 24 -13 38 3 7 3 9 -1 5
-9 -7 -46 27 -46 43 0 5 -4 8 -9 5 -5 -3 -7 16 -5 42 3 43 2 44 -5 12 l-8 -35
-1 35 c-1 19 7 54 18 78 10 23 15 42 11 42 -5 0 -12 -7 -15 -16 -3 -8 -10 -13
-15 -9 -11 6 -58 -41 -67 -67 -3 -9 2 -31 11 -49 l17 -32 -31 6 c-36 7 -36 7
-16 -60 9 -31 39 -81 76 -129 98 -127 103 -140 103 -279 1 -138 -9 -177 -78
-298 -24 -42 -47 -93 -50 -114 -4 -21 -14 -62 -22 -90 -13 -49 -17 -53 -45
-53 -33 0 -90 -26 -158 -73 -29 -20 -46 -26 -49 -19 -2 7 -8 12 -14 12 -6 0
-8 -7 -5 -15 4 -9 -8 -26 -31 -45 l-37 -31 -3 45 c-2 25 1 61 7 80 5 20 7 62
4 95 -5 50 -2 64 15 85 14 18 22 22 25 14 3 -7 6 -3 6 9 1 14 19 35 51 60 85
64 144 126 165 173 23 53 101 137 108 118 3 -7 6 -3 6 8 1 12 8 38 16 57 17
40 20 97 6 97 -5 0 -7 -9 -4 -20 9 -33 -25 -107 -72 -154 -24 -25 -55 -67 -70
-95 -31 -56 -82 -113 -140 -156 -22 -16 -60 -47 -84 -67 l-44 -38 -126 0 c-84
0 -148 6 -191 17 -45 11 -103 16 -188 15 -164 -1 -172 2 -172 73 0 37 -4 55
-12 56 -7 0 -2 5 11 10 13 5 39 6 58 3 22 -4 38 -2 42 5 5 7 20 0 47 -23 l39
-33 90 8 c50 4 115 13 145 19 30 6 89 10 131 8 49 -1 82 2 91 10 8 6 23 38 34
69 14 44 33 73 76 116 32 32 58 67 58 77 0 29 30 93 58 123 14 15 21 27 14 27
-18 0 -71 -84 -81 -130 -9 -38 -32 -67 -56 -68 -5 0 -13 -11 -18 -24 -7 -18
-10 -20 -17 -8 -15 23 -12 43 19 140 21 66 39 102 66 132 37 40 37 42 31 100
-5 51 -3 64 19 98 30 48 34 86 8 75 -10 -4 -38 -11 -63 -14 -25 -4 -55 -13
-67 -19 -12 -7 -34 -16 -48 -22 -30 -11 -30 -13 7 93 18 50 24 57 41 51 20 -6
20 -6 4 10 -18 19 -37 14 -37 -9 0 -10 -9 -14 -25 -13 -14 1 -25 3 -25 4 0 1
16 49 36 106 40 116 53 139 103 186 20 19 28 32 19 28 -12 -3 -15 -1 -11 10 5
15 43 20 43 6 0 -5 15 -6 33 -3 31 4 31 5 7 11 l-25 6 28 6 c19 4 27 1 27 -8
0 -8 7 -14 16 -14 8 0 13 4 10 9 -3 4 6 6 20 3 20 -4 23 -7 12 -14 -9 -7 -8
-8 6 -4 12 4 24 -2 38 -20 14 -17 27 -24 40 -21 13 4 18 1 16 -11 -2 -9 3 -17
9 -17 16 0 45 -40 36 -49 -4 -4 -13 4 -21 16 -10 18 -12 18 -6 3 4 -11 9 -32
12 -47 2 -16 8 -28 13 -28 5 0 9 -11 9 -24 0 -14 5 -28 10 -31 6 -4 10 15 10
48 0 93 -39 155 -130 203 -52 28 -173 26 -221 -4 l-35 -22 -52 76 c-29 41 -50
80 -46 85 3 6 23 18 43 26 20 9 30 18 23 21 -8 2 -19 -1 -25 -7 -7 -7 -59 -11
-140 -11 -83 0 -126 -4 -122 -10 3 -6 51 -10 107 -10 56 0 99 -2 97 -5 -10 -9
-635 -18 -894 -11 -93 2 -194 0 -224 -5 -33 -5 -59 -5 -66 1 -12 10 -75 9 -75
-1 0 -7 -32 -5 -46 4 -6 3 -46 6 -90 5 -60 0 -82 -4 -91 -17 -11 -15 -12 -15
-13 1 0 16 -46 18 -752 18 -413 0 -754 2 -756 5 -3 3 360 5 806 5 535 0 812 3
812 10 0 7 -276 10 -808 10 -569 0 -811 3 -819 11 -8 8 -13 8 -17 0z m1 -173
c-3 -51 -10 -104 -15 -118 -5 -14 -24 -138 -42 -275 -17 -138 -34 -252 -36
-254 -7 -7 -5 17 21 219 14 108 27 235 30 281 2 46 11 115 20 154 8 38 15 73
15 77 0 5 3 8 6 8 3 0 3 -42 1 -92z m-1487 53 c0 -6 -4 -13 -10 -16 -5 -3 -10
1 -10 9 0 9 5 16 10 16 6 0 10 -4 10 -9z m426 -117 c-5 -13 -2 -15 14 -11 11
3 20 1 20 -4 0 -5 -3 -9 -7 -10 -5 0 -18 -2 -30 -5 -26 -4 -27 -1 -13 27 13
23 25 25 16 3z m2969 -14 c3 -5 1 -10 -4 -10 -6 0 -11 5 -11 10 0 6 2 10 4 10
3 0 8 -4 11 -10z m-3034 -33 c-8 -8 -11 -7 -11 4 0 20 13 34 18 19 3 -7 -1
-17 -7 -23z m2875 6 c-10 -10 -19 5 -10 18 6 11 8 11 12 0 2 -7 1 -15 -2 -18z
m-2828 -11 c2 -7 -2 -10 -12 -6 -9 3 -16 11 -16 16 0 13 23 5 28 -10z m-84
-25 c-8 -5 -11 -14 -8 -20 5 -9 4 -9 -5 -1 -10 9 -10 16 0 32 9 15 16 18 21 9
4 -6 1 -15 -8 -20z m242 -13 c13 -11 28 -33 34 -48 10 -27 10 -27 -28 -21
l-37 6 33 -15 c18 -9 32 -23 32 -33 0 -14 2 -15 9 -4 5 8 16 11 26 8 20 -8 11
-27 -13 -27 -11 0 -31 -29 -57 -83 -34 -70 -45 -84 -75 -95 l-35 -13 33 5 c24
4 32 2 32 -10 0 -18 45 -59 82 -75 15 -6 26 -14 24 -18 -2 -3 27 -6 64 -6 54
0 75 -5 96 -21 44 -33 63 -65 75 -129 7 -35 24 -76 40 -99 15 -21 40 -72 55
-112 15 -41 30 -74 35 -74 4 0 15 10 23 22 9 12 39 37 67 55 82 52 189 152
189 177 0 22 39 83 62 98 21 13 55 9 72 -7 8 -8 19 -15 25 -15 6 0 11 -21 11
-50 0 -40 -4 -51 -21 -61 -23 -12 -38 0 -40 31 0 10 -2 11 -6 2 -2 -6 -9 -9
-15 -6 -7 5 -9 -2 -4 -20 5 -20 3 -26 -10 -26 -19 0 -28 -10 -139 -155 -119
-154 -116 -152 -154 -180 -39 -28 -79 -33 -87 -11 -3 8 -11 13 -18 10 -7 -3
-36 20 -65 51 -56 59 -123 187 -113 214 5 13 2 13 -12 -1 -9 -10 -23 -18 -29
-18 -7 0 -5 -5 4 -10 14 -8 15 -18 8 -55 -5 -26 -15 -66 -24 -91 -21 -61 -20
-253 1 -314 18 -52 15 -56 -76 -97 -84 -38 -222 -34 -235 8 -5 16 -10 17 -27
8 -11 -6 -22 -8 -26 -5 -3 3 1 6 9 6 12 0 12 2 -1 10 -9 6 -17 5 -21 -2 -8
-13 -59 -2 -59 13 0 6 7 9 15 5 23 -8 18 0 -10 18 -26 17 -26 17 -19 -11 8
-34 22 -52 49 -64 19 -9 19 -9 -2 -5 -31 6 -38 -9 -12 -28 16 -11 20 -22 17
-45 -3 -17 -2 -31 2 -31 3 0 -1 -52 -9 -115 -12 -98 -17 -115 -32 -115 -19 0
-19 6 2 129 9 57 12 107 5 100 -2 -2 -14 -69 -26 -149 -11 -80 -23 -152 -26
-161 -3 -12 8 -23 36 -38 51 -26 68 -26 91 1 16 17 19 18 19 5 0 -10 9 -26 19
-36 11 -11 22 -39 25 -63 39 -312 42 -365 25 -448 -10 -52 -12 -110 -5 -173 5
-39 16 -46 17 -11 0 37 48 -113 53 -171 7 -69 -14 -129 -27 -78 -2 10 -3 0 0
-22 2 -22 6 -62 8 -90 13 -164 17 -200 25 -221 6 -14 5 -24 -2 -26 -6 -2 -2
-19 11 -41 25 -45 26 -47 4 -48 -14 0 -13 -2 5 -9 12 -5 22 -15 22 -22 0 -9
-3 -9 -10 2 -6 10 -10 11 -10 3 0 -7 -3 -13 -7 -12 -5 1 -18 -2 -29 -6 -15 -5
-20 -13 -17 -26 3 -10 0 -19 -6 -19 -17 0 -13 40 4 46 8 4 15 14 14 23 0 10
-2 11 -6 4 -6 -17 -33 -17 -33 0 0 8 -4 7 -10 -3 -8 -12 -12 -13 -19 -1 -7 10
-12 8 -25 -10 -9 -13 -16 -19 -16 -14 0 5 12 27 27 48 22 32 27 49 25 89 -2
55 -42 222 -67 282 -14 32 -14 40 -3 47 12 8 4 13 -14 10 -5 0 -8 3 -8 9 0 5
-7 10 -15 10 -9 0 -12 6 -8 17 4 10 2 14 -4 10 -6 -4 -14 4 -17 18 -4 14 -11
23 -15 20 -12 -7 -7 110 8 239 l12 98 -46 139 c-49 149 -74 313 -76 504 0 50
-3 84 -6 78 -4 -12 -33 -19 -33 -9 0 11 41 243 44 252 3 7 -13 26 -35 44 -22
18 -44 41 -48 52 -8 22 -62 57 -171 111 -40 19 -91 58 -132 98 -59 57 -68 71
-68 102 0 60 104 240 185 320 23 23 57 70 75 105 52 98 77 114 224 141 67 12
110 45 125 95 16 52 23 176 10 176 -6 0 -9 9 -6 20 3 11 1 20 -4 20 -12 0 -12
47 0 55 5 3 11 -7 13 -22 3 -26 4 -26 23 14 19 41 74 83 108 83 8 0 21 7 28
16 11 13 14 13 17 3 3 -8 15 -23 28 -35z m73 30 c6 4 11 0 11 -9 0 -8 7 -18
15 -21 18 -7 10 -24 -11 -24 -8 0 -13 4 -10 9 3 5 -5 17 -19 27 -13 10 -21 22
-18 27 3 5 9 4 13 -3 4 -7 13 -9 19 -6z m701 -29 c0 -8 -4 -15 -9 -15 -5 0
-11 7 -15 15 -3 9 0 15 9 15 8 0 15 -7 15 -15z m3663 -15 c-3 -12 -8 -19 -11
-16 -5 6 5 36 12 36 2 0 2 -9 -1 -20z m-2403 -72 c0 -19 -2 -20 -10 -8 -13 19
-13 30 0 30 6 0 10 -10 10 -22z m-670 -28 c0 -6 -13 -9 -30 -8 -16 1 -30 6
-30 10 0 4 14 8 30 8 17 0 30 -5 30 -10z m50 0 c-20 -13 -33 -13 -25 0 3 6 14
10 23 10 15 0 15 -2 2 -10z m110 1 c0 -10 -76 -8 -86 2 -4 4 14 7 39 7 26 0
47 -4 47 -9z m-128 -98 c-4 -40 20 -86 58 -115 18 -13 28 -28 25 -37 -2 -9 -5
-36 -6 -61 -1 -25 -6 -53 -11 -63 -11 -22 -2 -67 12 -67 6 0 10 7 10 16 0 12
6 15 25 10 19 -5 25 -3 25 11 0 15 3 14 23 -5 25 -26 18 -34 -43 -52 -61 -17
-95 -12 -129 19 -34 31 -40 51 -16 51 8 0 15 -6 15 -12 0 -10 3 -9 9 1 6 9 11
10 15 3 4 -6 13 -9 21 -6 8 4 12 10 9 16 -3 5 -12 7 -18 5 -27 -10 -38 8 -24
39 7 16 17 32 23 36 5 4 -7 8 -27 8 -32 0 -38 3 -38 22 0 24 -27 58 -45 58 -8
0 -14 23 -17 68 -3 37 -3 69 -2 71 5 6 77 19 94 17 11 -1 14 -11 12 -33z m203
-51 c22 -13 31 -21 20 -17 -11 4 -27 8 -35 8 -8 0 -26 11 -40 24 -21 20 -22
23 -5 16 11 -4 38 -18 60 -31z m1809 -352 c1 -259 3 -286 19 -298 34 -26 21
-42 -35 -42 -65 0 -88 11 -69 34 10 11 13 46 12 114 -2 156 16 463 30 517 l13
50 14 -45 c11 -34 15 -113 16 -330z m-1809 304 c9 -15 12 -23 6 -20 -11 7 -35
46 -28 46 3 0 12 -12 22 -26z m108 -24 c9 0 17 -4 17 -10 0 -17 -17 -11 -42
13 -13 12 -17 16 -8 10 9 -7 24 -13 33 -13z m-58 -20 c3 -5 1 -10 -4 -10 -6 0
-11 5 -11 10 0 6 2 10 4 10 3 0 8 -4 11 -10z m2433 -44 c41 -1 52 -4 52 -17 0
-9 -7 -22 -15 -29 -13 -11 -14 -10 -8 6 6 17 5 17 -10 5 -14 -11 -17 -11 -17
0 0 10 -2 11 -8 2 -4 -7 -13 -9 -20 -4 -7 4 -41 4 -75 -1 -72 -10 -93 -16 -57
-18 22 0 23 -2 7 -11 -10 -6 -30 -13 -45 -15 -15 -3 -33 -7 -39 -9 -7 -2 -13
0 -13 5 0 4 14 11 31 15 17 4 28 9 26 12 -3 2 -24 -1 -46 -8 -24 -7 -37 -15
-30 -19 6 -4 -20 -22 -62 -42 -113 -54 -221 -144 -286 -241 -14 -20 -28 -35
-31 -32 -17 17 129 175 214 232 54 36 72 53 34 33 -65 -35 -143 -99 -206 -172
-45 -51 -56 -56 -53 -22 5 42 32 78 116 149 127 109 360 205 453 188 19 -4 59
-7 88 -7z m657 4 c3 -5 1 -10 -4 -10 -6 0 -11 5 -11 10 0 6 2 10 4 10 3 0 8
-4 11 -10z m-3243 -92 c-6 -6 -9 3 -7 24 5 65 9 72 12 29 3 -24 0 -48 -5 -53z
m2501 35 c-7 -2 -19 -2 -25 0 -7 3 -2 5 12 5 14 0 19 -2 13 -5z m457 -18 c27
-14 63 -43 81 -65 17 -21 36 -37 41 -34 4 3 11 -2 14 -11 5 -12 9 -13 14 -5
10 16 68 -36 126 -111 64 -83 119 -191 150 -294 24 -79 27 -107 27 -225 0
-118 -3 -146 -27 -225 -66 -217 -222 -410 -414 -509 -38 -19 -39 -20 -45 -2
-4 10 19 30 71 62 168 105 284 261 348 469 15 48 19 91 18 210 0 137 -3 157
-28 229 -27 79 -81 185 -115 227 -14 17 -20 19 -26 9 -5 -8 -4 -11 3 -6 6 3
13 -3 17 -14 3 -11 10 -20 15 -20 4 0 10 -7 13 -14 20 -52 -100 90 -133 157
-8 17 -22 33 -30 35 -11 4 -10 -1 4 -17 24 -27 16 -27 -14 -1 -13 11 -17 20
-10 20 10 0 10 3 0 15 -14 17 -35 21 -25 5 3 -5 1 -10 -5 -10 -7 0 -10 6 -7
14 8 20 -28 47 -43 33 -10 -9 -11 -9 -6 0 4 7 -3 19 -17 27 -29 19 -71 76 -57
76 6 0 33 -11 60 -25z m-348 -10 c0 -5 -5 -11 -11 -13 -6 -2 -11 4 -11 13 0 9
5 15 11 13 6 -2 11 -8 11 -13z m-1347 -19 c17 -12 18 -18 7 -53 -7 -22 -12
-59 -12 -82 0 -29 -4 -41 -14 -41 -19 0 -28 -16 -36 -60 -5 -32 -8 -35 -35
-31 -66 8 -70 7 -73 -23 -2 -18 4 -40 18 -58 24 -33 22 -62 -11 -114 -36 -58
-116 -46 -162 25 -20 31 -22 41 -13 73 21 72 30 49 11 -27 -8 -27 -7 -29 8
-16 10 7 17 20 17 27 0 8 4 14 10 14 6 0 7 -15 4 -37 -5 -32 -4 -35 9 -25 9 8
17 41 22 90 4 42 11 86 16 97 8 20 7 -19 -7 -149 -7 -70 10 -71 20 -1 9 56 23
60 18 5 -3 -25 0 -40 7 -40 6 0 11 3 12 8 0 4 2 50 5 102 3 52 9 117 14 143 6
27 7 54 3 60 -3 7 -3 9 1 5 14 -12 56 35 56 61 0 20 8 30 38 43 47 21 45 20
67 4z m-1171 -12 c9 -3 13 -10 10 -15 -8 -14 -21 -11 -28 6 -6 17 -4 18 18 9z
m-260 -39 c-4 -17 -2 -25 7 -25 7 0 9 -3 6 -6 -9 -9 12 -46 22 -39 5 3 12 -2
15 -11 4 -9 2 -13 -5 -8 -7 4 -10 1 -7 -7 3 -8 11 -13 17 -11 6 1 12 -4 12
-10 1 -7 2 -19 3 -26 0 -7 7 -16 14 -21 8 -5 13 -11 12 -15 -3 -13 53 -121 74
-144 11 -13 19 -27 18 -30 -27 -51 -27 -51 -99 -17 -67 30 -68 18 -3 -26 27
-19 49 -36 49 -39 0 -3 -5 -13 -13 -22 -12 -16 -16 -16 -77 3 -42 13 -76 32
-100 55 -19 19 -39 31 -44 27 -4 -5 -5 0 -2 9 4 12 -1 19 -15 24 -12 3 -16 9
-10 13 6 4 1 15 -14 28 -20 18 -24 19 -24 5 0 -8 9 -26 21 -38 16 -17 19 -29
14 -53 -4 -17 -10 -31 -14 -31 -8 0 -71 21 -71 23 2 28 48 140 66 164 14 18
20 33 15 33 -6 0 -11 -4 -11 -10 0 -5 -4 -10 -10 -10 -27 0 9 141 42 164 12 9
23 14 24 13 2 -2 -3 -30 -11 -62 -20 -84 -19 -92 6 -69 50 45 98 137 77 150
-7 4 -8 3 -4 -4 4 -7 3 -12 -1 -12 -5 0 -17 -16 -27 -35 -14 -25 -22 -32 -28
-23 -4 7 -8 18 -8 23 0 6 5 3 10 -5 6 -10 8 -4 4 22 -6 34 -4 37 32 57 22 11
40 20 42 21 1 0 0 -11 -4 -25z m2726 15 c0 -5 -4 -10 -10 -10 -5 0 -10 -7 -10
-16 0 -12 6 -10 21 10 22 28 59 35 59 11 0 -8 -4 -15 -10 -15 -23 0 -90 -184
-90 -249 0 -18 -5 -31 -12 -32 -56 -3 -110 -28 -103 -47 4 -12 3 -12 -9 -3 -9
7 -17 8 -20 2 -3 -5 0 -12 6 -15 7 -3 4 -4 -7 -1 -24 6 -115 -76 -115 -103 0
-15 -2 -15 -10 -2 -6 10 -10 11 -10 3 0 -7 -10 -12 -22 -12 -16 1 -18 3 -7 6
10 2 19 14 23 26 7 28 0 35 -9 8 -7 -22 -25 -29 -25 -11 0 6 9 28 20 50 24 47
25 57 5 40 -8 -7 -15 -19 -15 -27 0 -8 -6 -24 -12 -36 -7 -12 -13 -31 -13 -42
0 -11 -8 -21 -17 -23 -13 -2 -15 2 -11 20 6 22 5 21 -16 -4 -22 -27 -64 -38
-75 -19 -3 4 -17 6 -30 4 -34 -7 -92 39 -72 56 7 6 11 22 9 36 -4 17 8 44 41
93 25 38 53 75 61 82 8 7 15 22 15 33 0 16 -3 18 -12 9 -7 -7 -19 -12 -27 -12
-9 0 -1 10 17 22 26 16 36 18 42 9 5 -10 20 -3 55 23 26 20 66 47 88 60 93 54
307 107 307 76z m-2947 -59 c-35 -33 -63 -64 -63 -70 0 -12 -20 -15 -20 -3 -1
7 131 131 140 131 3 0 -23 -26 -57 -58z m606 5 c22 -23 23 -31 17 -88 -8 -76
-17 -87 -51 -60 -14 11 -40 24 -56 27 -31 7 -33 12 -13 60 7 18 6 18 -9 6 -9
-7 -17 -23 -17 -35 -1 -23 -28 -88 -29 -69 -1 6 8 40 19 74 15 49 16 65 7 72
-8 6 -7 7 4 4 11 -4 21 6 33 29 15 34 17 34 43 20 16 -8 39 -26 52 -40z m2786
24 c3 -5 1 -10 -4 -10 -6 0 -11 5 -11 10 0 6 2 10 4 10 3 0 8 -4 11 -10z
m-3517 -54 c-7 -8 -17 -12 -22 -9 -4 3 -2 9 5 14 22 13 31 11 17 -5z m572 -3
c0 -7 -4 -13 -8 -13 -8 0 -10 -7 -14 -50 -1 -11 -6 -20 -11 -20 -5 0 -6 -7 -3
-16 4 -9 1 -23 -5 -30 -9 -11 -9 -14 0 -14 8 0 10 -8 6 -20 -3 -11 -2 -20 2
-20 9 0 12 -45 3 -54 -3 -2 -35 52 -72 122 l-67 127 85 1 c63 0 84 -3 84 -13z
m-610 -13 c0 -5 -2 -10 -4 -10 -3 0 -8 5 -11 10 -3 6 -1 10 4 10 6 0 11 -4 11
-10z m-133 -32 c-3 -8 -6 -5 -6 6 -1 11 2 17 5 13 3 -3 4 -12 1 -19z m121 2
c7 -11 8 -20 3 -20 -5 0 -12 7 -15 16 -3 8 -10 12 -16 9 -5 -3 -10 -1 -10 4 0
18 24 12 38 -9z m-3 -49 c-10 -16 -25 -3 -25 22 0 20 1 20 16 5 9 -9 13 -21 9
-27z m36 -12 c-24 -21 -49 -39 -55 -39 -6 1 11 21 38 45 28 25 52 42 55 39 3
-3 -14 -24 -38 -45z m-166 -39 c-4 -39 -9 -69 -12 -66 -3 3 -2 37 2 76 4 39 9
69 12 66 3 -3 2 -37 -2 -76z m3856 -79 c39 -58 99 -203 99 -237 0 -5 -65 30
-117 63 -14 10 -23 11 -28 3 -3 -6 -3 -9 2 -8 4 2 41 -19 81 -45 l72 -49 0
-83 c0 -244 -121 -470 -319 -593 -57 -35 -83 -25 -34 14 17 13 36 37 43 54 19
47 7 173 -24 239 l-24 53 26 51 c31 63 41 186 22 276 -11 53 -10 61 9 99 12
23 21 48 21 56 0 8 6 19 13 23 6 4 12 23 13 41 0 17 1 71 2 119 l2 87 46 -44
c26 -25 68 -78 95 -119z m-3631 139 c0 -5 -9 -17 -19 -27 -19 -18 -19 -19 9
-92 16 -41 27 -77 24 -80 -7 -8 -25 24 -42 74 -8 22 -21 48 -29 57 -14 16 -13
20 17 48 35 32 40 35 40 20z m1537 -37 c-3 -10 -5 -2 -5 17 0 19 2 27 5 18 2
-10 2 -26 0 -35z m-897 -10 c14 -14 12 -14 -15 0 -16 8 -37 17 -45 21 -8 3 -1
4 15 0 17 -3 37 -12 45 -21z m-730 -47 c17 -21 31 -20 24 2 -2 9 10 -14 28
-51 29 -59 39 -71 77 -88 39 -17 43 -21 36 -46 -10 -40 -23 -44 -62 -18 -18
13 -53 33 -77 45 -43 20 -89 70 -65 70 6 0 9 6 6 14 -3 8 -1 17 6 19 9 3 8 8
-2 20 -12 15 -11 17 3 17 23 0 20 15 -6 34 -20 15 -21 15 -2 7 11 -6 26 -17
34 -25z m700 4 c29 -15 40 -27 40 -43 0 -33 -112 -257 -150 -300 -23 -26 -40
-37 -61 -37 -36 0 -170 42 -254 80 l-64 29 16 41 17 42 44 -7 c43 -6 174 -39
204 -50 23 -9 91 99 119 189 14 44 29 76 37 76 7 0 31 -9 52 -20z m851 -31
c-10 -23 -10 -22 -7 6 6 39 7 42 12 29 3 -6 0 -22 -5 -35z m75 4 c-10 -10 -19
5 -10 18 6 11 8 11 12 0 2 -7 1 -15 -2 -18z m2190 -12 c-4 -5 -1 -12 4 -14 6
-3 5 -4 -2 -3 -15 3 -23 26 -8 26 6 0 9 -4 6 -9z m-4002 -87 c-71 -65 -85 -73
-83 -51 1 17 143 138 148 124 2 -6 -27 -39 -65 -73z m1626 56 c0 -5 7 -10 16
-10 8 0 12 -5 8 -11 -3 -6 3 -32 14 -58 11 -25 38 -113 60 -196 22 -82 44
-158 47 -167 6 -14 2 -18 -18 -18 -22 0 -27 6 -33 38 -38 216 -71 343 -112
425 -2 4 1 7 7 7 6 0 11 -4 11 -10z m2419 -46 c15 -33 18 -51 11 -63 -8 -14
-10 -14 -11 4 -1 11 -2 25 -2 32 0 6 -6 14 -13 17 -9 3 -14 -2 -14 -14 0 -25
-16 -26 -24 -3 -4 11 -1 22 9 29 9 7 13 18 9 28 -3 9 -1 16 4 16 6 0 20 -21
31 -46z m-1469 21 c0 -8 -4 -15 -10 -15 -5 0 -7 7 -4 15 4 8 8 15 10 15 2 0 4
-7 4 -15z m-595 -104 c5 -67 3 -117 -6 -155 -12 -56 -42 -101 -60 -91 -5 4 -9
-3 -9 -13 0 -26 -18 -39 -69 -51 -39 -8 -44 -7 -48 10 -3 10 -10 19 -15 19 -6
0 -8 9 -5 20 3 11 1 20 -3 20 -5 0 -12 26 -16 58 -3 31 -10 64 -15 73 -7 14 0
16 49 17 76 0 82 2 117 36 l30 30 6 -35 c6 -33 6 -32 8 11 2 72 13 150 21 150
4 0 11 -44 15 -99z m-448 77 c16 -21 33 -77 53 -181 24 -116 24 -118 8 -140
-11 -15 -12 -7 -10 47 2 36 -1 73 -7 83 -10 15 -11 14 -9 -12 5 -56 -14 -240
-25 -254 -10 -12 -9 -12 11 -2 13 7 64 17 113 21 121 11 238 47 251 76 15 31
57 50 106 45 7 -1 12 -16 12 -40 0 -32 -4 -41 -22 -46 -13 -4 -66 -28 -118
-53 -222 -106 -272 -122 -371 -122 -48 0 -51 2 -65 35 -26 63 -11 463 20 523
17 33 37 41 53 20z m489 -33 c15 -36 19 -107 7 -119 -4 -4 -8 -14 -8 -22 0 -7
-4 -15 -10 -16 -6 -2 -11 36 -13 95 -2 53 0 97 3 97 3 0 13 -16 21 -35z
m-2021 -214 c-14 -111 -25 -209 -25 -218 0 -9 -3 -14 -6 -10 -4 3 6 109 22
234 16 125 30 221 32 212 1 -8 -9 -107 -23 -218z m515 204 c20 -24 6 -28 -15
-5 -10 11 -13 20 -8 20 6 0 16 -7 23 -15z m2044 -11 c15 -6 15 -8 0 -19 -14
-10 -18 -33 -20 -126 -7 -285 63 -485 229 -653 76 -78 119 -108 233 -167 52
-26 70 -40 64 -49 -11 -17 -72 5 -160 58 -230 140 -368 355 -402 628 -12 99
-2 231 23 302 12 35 11 34 33 26z m1512 -30 c-4 -9 -9 -15 -11 -12 -3 3 -3 13
1 22 4 9 9 15 11 12 3 -3 3 -13 -1 -22z m-3723 -52 c31 -19 57 -40 57 -48 0
-16 -61 -64 -83 -64 -16 0 -70 101 -82 154 l-6 29 28 -18 c15 -10 54 -34 86
-53z m534 16 c-3 -8 -6 -5 -6 6 -1 11 2 17 5 13 3 -3 4 -12 1 -19z m3194 -11
c-8 -8 -11 -7 -11 4 0 20 13 34 18 19 3 -7 -1 -17 -7 -23z m-3221 -22 c-7 -9
-15 -13 -19 -10 -3 3 1 10 9 15 21 14 24 12 10 -5z m3231 -22 c-10 -17 -10
-16 -11 3 0 23 13 41 18 25 2 -6 -1 -18 -7 -28z m-1836 18 c3 -5 -5 -17 -17
-25 -23 -16 -21 -18 34 -30 20 -5 30 -15 36 -39 6 -22 15 -33 30 -35 18 -3 22
-10 22 -37 0 -48 -9 -65 -34 -65 -17 0 -22 6 -22 22 1 13 -4 23 -11 23 -6 0
-15 3 -19 8 -4 4 0 7 8 7 35 0 24 80 -14 104 -14 8 -20 7 -31 -8 -10 -13 -31
-19 -79 -23 -57 -5 -68 -3 -87 16 -11 11 -24 21 -28 21 -16 0 -43 -35 -43 -57
0 -29 -15 -31 -17 -2 -3 32 25 67 54 71 29 3 45 28 19 28 -9 0 -16 7 -16 15 0
12 18 15 104 15 58 0 107 -4 111 -9z m312 -13 c-3 -8 -6 -5 -6 6 -1 11 2 17 5
13 3 -3 4 -12 1 -19z m-2017 -59 l75 -30 -55 8 c-30 4 -76 7 -102 7 -53 -1
-55 1 -31 28 21 24 25 23 113 -13z m290 10 c0 -6 -4 -8 -9 -5 -5 4 -7 -4 -3
-16 3 -12 7 -17 10 -10 6 19 20 14 27 -9 9 -29 -21 -59 -59 -59 -17 0 -53 11
-81 25 l-50 25 42 -5 c23 -3 47 -6 55 -8 7 -2 10 -2 6 0 -14 8 -8 25 7 20 8
-4 17 -2 20 4 4 5 3 9 -2 8 -23 -4 -24 3 -3 26 22 23 40 25 40 4z m3250 1 c0
-5 -4 -10 -10 -10 -5 0 -10 5 -10 10 0 6 5 10 10 10 6 0 10 -4 10 -10z m-1524
-71 l-14 -34 -1 33 c-1 20 3 31 9 27 6 -3 11 4 11 17 1 15 3 17 6 7 2 -9 -3
-32 -11 -50z m-516 16 c0 -33 -1 -34 -20 -23 -30 19 -25 58 7 58 8 0 13 -13
13 -35z m803 25 c9 -1 17 -5 17 -9 0 -4 16 -5 35 -3 35 4 35 4 35 -35 0 -96
55 -221 128 -290 20 -20 71 -52 112 -71 41 -19 76 -36 78 -37 5 -5 -29 -67
-55 -102 -14 -18 -39 -59 -57 -92 l-32 -60 -62 29 c-225 106 -362 297 -397
554 -6 42 -4 50 15 63 13 10 20 22 17 34 -6 23 13 28 88 24 33 -2 68 -5 78 -5z
m-193 -27 c0 -7 -13 -11 -30 -11 -28 1 -37 8 -24 20 10 11 54 3 54 -9z m1047
-30 c-3 -10 -5 -2 -5 17 0 19 2 27 5 18 2 -10 2 -26 0 -35z m-734 -33 c3 -38
1 -57 -3 -45 -8 19 -14 123 -6 114 2 -2 6 -33 9 -69z m287 19 c0 -51 0 -51
-27 -44 -16 4 -30 8 -31 10 -7 7 19 74 31 79 24 9 27 5 27 -45z m-1029 11
c-20 -12 -99 -23 -111 -15 -5 3 -10 0 -10 -7 0 -9 -3 -9 -8 -2 -4 6 -15 13
-24 17 -10 3 -18 11 -18 17 0 8 17 9 53 5 28 -3 66 -2 82 3 33 10 60 -3 36
-18z m923 15 c-4 -8 -12 -15 -19 -15 -7 0 -18 7 -25 15 -11 13 -8 15 18 15 24
0 30 -4 26 -15z m46 -10 c-5 -14 -17 -39 -26 -57 -14 -26 -18 -29 -25 -15 -14
24 18 97 42 97 16 0 17 -4 9 -25z m-2659 -2 c1 -17 2 -17 6 0 2 9 9 17 14 17
5 0 9 -8 10 -17 0 -16 2 -15 10 2 7 14 8 6 4 -30 -2 -27 -9 -120 -15 -205 -13
-190 -39 -441 -48 -455 -4 -5 -10 4 -13 20 l-7 30 -1 -27 c-1 -18 -7 -28 -17
-28 -10 0 -14 6 -10 18 2 9 7 55 10 102 3 53 2 74 -3 55 -5 -16 -9 -52 -10
-80 -2 -64 -10 -95 -25 -95 -9 0 -12 18 -10 58 3 56 3 57 -5 10 -7 -47 -16
-66 -26 -56 -3 3 -1 58 6 122 6 65 9 119 6 122 -2 3 -7 -28 -11 -68 -13 -150
-18 -179 -30 -175 -11 4 -12 10 -2 117 4 50 3 56 -3 25 -5 -22 -12 -60 -15
-84 -6 -43 -12 -59 -20 -50 -2 2 2 47 10 99 7 52 13 106 13 120 -1 25 -10 -16
-30 -142 -13 -84 -34 -92 -26 -10 l6 57 -12 -52 c-12 -52 -27 -80 -27 -50 0
26 20 168 30 217 5 25 17 83 25 130 19 105 65 261 76 255 4 -3 5 3 3 12 -7 25
38 49 92 51 36 2 44 -1 45 -15z m159 -9 c36 -7 55 -37 90 -139 17 -49 41 -110
54 -135 13 -25 29 -65 35 -90 7 -25 16 -54 20 -65 24 -55 52 -148 66 -219 18
-87 14 -115 -5 -37 -7 28 -16 53 -20 56 -4 3 0 -28 11 -68 21 -81 23 -97 10
-97 -5 0 -15 24 -24 53 -11 37 -16 45 -16 25 -1 -15 4 -39 9 -53 6 -15 7 -32
3 -38 -8 -13 -31 46 -32 82 -1 17 -4 22 -11 15 -8 -8 -8 -19 0 -38 5 -15 10
-39 9 -54 -1 -21 -5 -14 -20 28 l-19 55 5 -62 c7 -79 -9 -84 -25 -8 -15 73
-24 70 -16 -5 12 -109 -11 -63 -29 58 -10 64 -22 126 -26 137 -15 38 -10 -24
11 -139 11 -59 17 -113 14 -118 -10 -16 -24 13 -24 50 0 17 -4 32 -10 32 -6 0
-7 -18 -3 -46 5 -38 3 -46 -8 -42 -8 3 -17 28 -23 64 -52 361 -67 433 -35 169
5 -49 12 -110 15 -135 2 -25 6 -57 10 -72 4 -20 2 -28 -8 -28 -13 0 -19 36
-57 340 -8 59 -9 61 -10 20 -1 -40 19 -227 35 -327 3 -18 1 -33 -4 -33 -10 0
-25 88 -38 213 -4 37 -10 67 -15 67 -9 0 -1 -99 12 -150 5 -19 9 -57 9 -85 -1
-78 -16 -34 -30 85 -7 58 -16 125 -20 150 -7 40 -8 36 -9 -37 -1 -67 -4 -83
-16 -83 -17 0 -18 19 -8 123 5 55 8 65 19 56 12 -9 14 3 16 72 1 72 2 77 8 39
l7 -45 1 42 c1 23 -2 44 -6 47 -13 8 -5 330 7 334 6 2 11 15 11 29 0 22 3 25
28 19 15 -3 38 -9 52 -12z m3375 -23 c-4 -24 -2 -42 4 -46 6 -3 11 -14 11 -23
-1 -9 -9 1 -20 23 -12 27 -15 42 -8 46 6 4 8 14 5 23 -4 9 -2 16 4 16 7 0 8
-14 4 -39z m-3217 -33 c37 -34 94 -114 140 -196 46 -81 49 -92 27 -92 -8 0
-15 5 -15 11 0 6 -7 8 -16 5 -8 -3 -12 -2 -9 4 3 5 1 18 -4 27 -6 10 -11 12
-11 6 0 -15 -57 -46 -69 -38 -10 6 -131 286 -131 303 0 17 59 -4 88 -30z
m3252 17 c0 -8 -4 -15 -10 -15 -5 0 -10 7 -10 15 0 8 5 15 10 15 6 0 10 -7 10
-15z m-1910 -5 c0 -5 -4 -10 -10 -10 -5 0 -10 5 -10 10 0 6 5 10 10 10 6 0 10
-4 10 -10z m67 -10 c-1 -11 -5 -20 -9 -20 -4 0 -8 9 -8 20 0 11 4 20 9 20 6 0
9 -9 8 -20z m-637 -37 c0 -16 -6 -23 -20 -23 -11 0 -23 0 -27 0 -14 0 -9 19
11 45 21 28 36 19 36 -22z m2067 25 c-3 -8 -6 -5 -6 6 -1 11 2 17 5 13 3 -3 4
-12 1 -19z m-2254 -190 c1 -9 3 -15 6 -13 2 3 11 -1 18 -7 8 -7 35 -11 59 -9
l44 3 -4 -77 c-3 -64 0 -78 13 -82 44 -13 55 -22 19 -17 l-36 6 0 -172 c0 -94
-3 -174 -6 -177 -3 -4 -6 6 -6 20 0 18 -5 27 -16 27 -8 0 -12 -4 -9 -10 3 -5
1 -10 -5 -10 -7 0 -11 14 -10 33 3 47 1 51 -15 37 -20 -17 -28 6 -23 65 2 36
1 42 -8 30 -6 -8 -18 -15 -26 -15 -12 0 -14 11 -10 54 4 52 4 53 -24 59 -57
12 -56 7 -16 241 l37 219 8 -94 c5 -52 9 -102 10 -111z m794 187 c-6 -17 -70
-34 -102 -28 -45 9 -77 22 -71 30 7 12 177 10 173 -2z m91 -118 c31 -34 4 -39
-170 -33 -89 3 -168 6 -175 7 -19 3 -24 29 -8 35 9 4 15 19 15 38 l0 31 18
-23 c16 -20 19 -21 37 -8 15 12 35 14 80 10 33 -3 72 -1 88 5 16 6 27 7 27 1
0 -5 9 -14 21 -20 18 -10 22 -8 32 21 l12 32 3 -39 c2 -22 11 -47 20 -57z
m1342 36 c-23 -41 -23 -38 0 20 8 21 16 34 18 28 2 -5 -6 -27 -18 -48z m-1622
35 c-6 -18 -28 -21 -28 -4 0 9 7 16 16 16 9 0 14 -5 12 -12z m-2607 -67 c0
-14 13 -63 28 -109 15 -45 25 -85 22 -88 -3 -3 -11 10 -17 28 -12 31 -12 30
-8 -22 l4 -55 -15 39 c-20 53 -28 59 -20 15 9 -51 -11 -60 -24 -12 -29 112
-51 203 -51 213 0 25 18 -2 30 -45 7 -25 15 -43 18 -41 2 3 -3 26 -12 52 -19
58 -19 54 -1 54 8 0 15 8 15 18 1 29 30 -16 31 -47z m900 36 c-5 -13 -12 -41
-15 -63 -10 -59 -16 -74 -31 -74 -27 0 -25 20 10 90 34 68 53 93 36 47z m2663
7 c3 -8 2 -12 -4 -9 -6 3 -10 10 -10 16 0 14 7 11 14 -7z m-1034 3 c0 -2 -11
-26 -25 -53 -14 -27 -28 -66 -31 -86 -8 -46 -22 -49 -30 -8 -4 17 -9 30 -13
30 -7 0 -35 60 -30 63 57 36 129 66 129 54z m-2920 -42 c0 -7 5 -15 11 -17 9
-3 9 -29 0 -103 -23 -194 -21 -186 -45 -183 -14 2 -20 9 -19 23 10 109 28 232
34 241 5 5 6 23 3 38 -3 18 -1 25 6 21 5 -3 10 -12 10 -20z m335 -148 c15 -64
25 -121 21 -124 -10 -11 -24 16 -32 62 -3 22 -11 47 -16 55 -7 11 -8 8 -4 -10
18 -79 19 -100 2 -100 -17 0 -18 3 -41 145 -17 102 -20 113 -32 102 -6 -6 9
-150 23 -228 4 -21 0 -28 -18 -32 -12 -4 -24 -4 -26 -2 -2 2 -8 43 -13 92 -19
187 -19 173 6 173 13 0 25 5 27 11 5 15 36 0 41 -19 3 -10 5 -3 6 13 l2 30 13
-25 c7 -14 26 -78 41 -143z m3639 147 c3 -8 2 -12 -4 -9 -6 3 -10 10 -10 16 0
14 7 11 14 -7z m-3908 -59 c-16 -174 -18 -200 -13 -195 3 3 11 60 18 128 8 80
16 121 23 119 6 -2 12 -29 12 -61 2 -78 14 -84 14 -7 0 46 3 62 13 59 8 -3 13
-42 15 -136 2 -127 2 -132 -18 -132 -18 0 -20 7 -22 73 -1 63 -2 65 -5 17 -5
-98 -12 -120 -34 -120 -16 0 -19 5 -14 20 5 17 2 20 -25 20 -25 0 -30 4 -26
18 2 9 10 72 17 140 11 110 15 122 32 122 18 0 19 -5 13 -65z m3508 -15 c5
-20 3 -19 -8 5 -7 17 -16 41 -20 55 -5 20 -3 19 8 -5 7 -16 16 -41 20 -55z
m-2657 18 c-2 -13 -4 -5 -4 17 -1 22 1 32 4 23 2 -10 2 -28 0 -40z m296 21
c-10 -17 -24 -36 -32 -42 -17 -14 -11 -1 21 46 26 37 33 34 11 -4z m-1029 -99
c4 -52 10 -114 13 -137 5 -39 4 -43 -16 -43 -21 0 -21 3 -21 153 1 166 13 180
24 27z m4414 100 c2 0 14 -24 27 -52 20 -43 25 -69 25 -139 0 -83 -1 -86 -33
-118 -19 -17 -60 -42 -91 -55 -55 -23 -58 -25 -96 -104 -39 -80 -114 -200
-174 -276 -17 -22 -36 -58 -41 -80 -9 -34 -16 -43 -44 -51 -27 -8 -39 -20 -54
-53 -10 -24 -33 -57 -50 -72 -18 -16 -28 -32 -24 -37 5 -4 14 0 21 10 7 9 19
17 26 17 18 0 8 -84 -17 -140 -11 -25 -29 -65 -39 -90 -26 -63 -44 -91 -57
-83 -6 3 -7 1 -3 -5 3 -6 -2 -19 -12 -29 -58 -59 -156 -244 -150 -286 2 -18 9
-22 35 -20 29 3 32 0 35 -30 3 -28 7 -32 37 -35 50 -5 70 -22 60 -49 -8 -22
-39 -33 -39 -14 0 5 -21 11 -47 13 -27 3 -56 8 -65 12 -15 7 -18 3 -18 -17 0
-14 -5 -29 -12 -33 -6 -4 -53 -8 -102 -10 -75 -1 -85 0 -58 9 17 5 32 14 32
20 0 12 -45 1 -93 -24 -39 -20 -103 -26 -92 -9 3 6 0 10 -7 11 -7 0 12 13 42
27 64 32 149 88 168 110 6 9 12 26 12 38 0 12 4 24 9 26 5 2 27 59 49 128 22
69 68 208 102 310 35 105 64 211 67 245 3 36 12 69 23 83 11 13 24 48 31 79
10 42 15 51 20 37 7 -17 8 -16 8 4 1 13 5 31 10 40 13 26 24 110 11 92 -20
-30 -6 18 37 129 31 81 57 132 103 201 19 30 42 68 50 85 26 51 85 100 182
147 106 53 121 57 163 46 16 -4 31 -8 33 -8z m-1781 -77 c23 -49 45 -104 49
-123 3 -19 15 -53 26 -74 18 -34 18 -38 3 -32 -9 3 -27 6 -40 6 -36 0 -49 20
-94 145 -44 124 -48 150 -28 158 33 14 44 4 84 -80z m2197 61 c3 -8 2 -12 -4
-9 -6 3 -10 10 -10 16 0 14 7 11 14 -7z m-4767 -26 c-3 -8 -6 -5 -6 6 -1 11 2
17 5 13 3 -3 4 -12 1 -19z m2686 15 c-7 -2 -21 -2 -30 0 -10 3 -4 5 12 5 17 0
24 -2 18 -5z m95 -10 c-16 -2 -40 -2 -55 0 -16 2 -3 4 27 4 30 0 43 -2 28 -4z
m215 0 c-13 -2 -33 -2 -45 0 -13 2 -3 4 22 4 25 0 35 -2 23 -4z m-2336 -65
c-2 -13 -4 -5 -4 17 -1 22 1 32 4 23 2 -10 2 -28 0 -40z m1720 10 c-2 -24 -2
-37 0 -29 4 9 11 2 20 -19 10 -24 10 -35 2 -40 -7 -5 -5 -9 5 -13 9 -4 16 -11
16 -16 0 -6 -7 -8 -15 -5 -8 4 -15 1 -15 -5 0 -6 7 -11 15 -11 8 0 19 -9 25
-20 6 -12 7 -20 1 -20 -12 0 -100 44 -126 64 -30 22 -12 30 25 11 18 -9 34
-14 37 -11 3 2 -13 14 -34 25 -37 18 -39 22 -37 63 1 24 2 46 3 50 1 8 27 15
60 17 22 1 23 -2 18 -41z m-1453 7 c-4 -8 -10 -15 -15 -15 -5 0 -9 7 -9 15 0
8 7 15 15 15 9 0 12 -6 9 -15z m-917 -17 c-3 -8 -6 -5 -6 6 -1 11 2 17 5 13 3
-3 4 -12 1 -19z m2901 -6 l174 3 -7 -50 c-3 -27 -15 -69 -25 -92 -22 -51 -47
-58 -200 -57 -90 1 -120 3 -172 13 -14 2 -46 77 -53 124 -11 71 -6 76 57 65
29 -6 131 -8 226 -6z m-2261 -74 c-2 -13 -4 -5 -4 17 -1 22 1 32 4 23 2 -10 2
-28 0 -40z m340 16 c-7 -7 -57 18 -57 28 0 5 14 1 31 -7 17 -9 29 -19 26 -21z
m2387 20 c3 -8 2 -12 -4 -9 -6 3 -10 10 -10 16 0 14 7 11 14 -7z m-2459 -24
c-5 -8 -11 -8 -17 -2 -6 6 -7 16 -3 22 5 8 11 8 17 2 6 -6 7 -16 3 -22z m692
-22 c-3 -8 -6 -5 -6 6 -1 11 2 17 5 13 3 -3 4 -12 1 -19z m103 -17 c-16 -30
-12 -51 9 -51 11 0 23 5 26 10 3 6 14 10 23 10 14 -1 13 -4 -5 -19 -30 -25
-29 -35 4 -59 26 -19 27 -20 5 -26 -25 -8 -30 -44 -7 -52 19 -8 9 -24 -15 -24
-13 0 -23 14 -35 51 -9 28 -19 49 -21 47 -3 -4 20 -112 31 -140 5 -14 2 -18
-13 -18 -15 0 -22 10 -30 48 -6 26 -18 78 -26 117 -20 86 -20 85 -1 85 8 0 23
9 32 20 22 26 37 26 23 1z m1708 -16 c-3 -3 -9 2 -12 12 -6 14 -5 15 5 6 7 -7
10 -15 7 -18z m-2781 -32 c-3 -10 -5 -2 -5 17 0 19 2 27 5 18 2 -10 2 -26 0
-35z m264 20 c-8 -15 -10 -15 -11 -2 0 17 10 32 18 25 2 -3 -1 -13 -7 -23z
m-874 -5 c-3 -8 -6 -5 -6 6 -1 11 2 17 5 13 3 -3 4 -12 1 -19z m3413 -8 c0 -5
-2 -10 -4 -10 -3 0 -8 5 -11 10 -3 6 -1 10 4 10 6 0 11 -4 11 -10z m38 -45
c-3 -3 -9 2 -12 12 -6 14 -5 15 5 6 7 -7 10 -15 7 -18z m-3918 -15 c13 -8 13
-10 -2 -10 -9 0 -20 5 -23 10 -8 13 5 13 25 0z m639 2 c18 11 23 11 31 -1 13
-21 28 -119 40 -251 6 -63 18 -145 26 -182 9 -37 13 -72 9 -77 -3 -6 1 -11 9
-11 9 0 16 -8 16 -17 2 -89 31 -259 50 -294 5 -9 16 -66 24 -125 14 -91 38
-227 62 -344 10 -48 48 -115 89 -156 42 -41 62 -74 46 -74 -5 0 -11 9 -14 21
-3 12 -11 19 -19 16 -7 -2 -20 -1 -29 4 -8 4 -21 4 -28 -1 -10 -6 -8 -9 8 -15
29 -9 27 -25 -4 -25 -19 0 -25 5 -25 23 0 18 -2 19 -10 7 -8 -13 -10 -12 -10
3 0 11 -5 15 -11 11 -6 -3 -15 0 -20 7 -4 7 -11 10 -15 6 -4 -4 -2 -13 4 -19
19 -19 14 -30 -10 -26 -21 3 -23 8 -20 55 1 29 6 63 11 75 4 11 5 33 3 47 -5
23 -6 24 -12 6 -7 -17 -9 -16 -14 10 -26 116 -72 246 -106 295 -49 72 -69 134
-77 230 -6 80 0 130 17 130 13 0 38 -52 33 -67 -2 -6 1 -14 6 -18 17 -10 13
32 -5 71 -9 19 -24 34 -33 34 -9 0 -23 13 -31 29 -8 16 -31 53 -51 82 -39 58
-79 162 -79 207 0 15 -3 38 -7 52 l-7 25 -6 -25 c-5 -20 -14 -3 -44 87 -30 90
-35 116 -26 132 14 28 38 27 44 -1 3 -13 7 -32 9 -43 3 -11 5 -3 6 18 1 22 5
36 11 32 5 -3 15 3 22 14 10 16 15 18 27 8 11 -9 15 -9 18 1 3 6 10 12 18 12
7 0 18 7 25 15 9 11 15 13 20 5 5 -9 13 -8 29 2z m428 -39 c-3 -10 -5 -2 -5
17 0 19 2 27 5 18 2 -10 2 -26 0 -35z m314 24 c-13 -13 -26 -3 -16 12 3 6 11
8 17 5 6 -4 6 -10 -1 -17z m1367 11 c-3 -15 73 -54 131 -67 40 -9 41 -8 36 12
-5 21 -5 21 6 0 7 -14 25 -25 46 -29 80 -15 28 -41 -60 -29 -28 4 -79 16 -112
28 -58 21 -60 24 -63 60 -2 21 1 37 7 37 6 0 10 -6 9 -12z m52 -13 c14 -8 21
-14 15 -14 -5 0 -21 6 -35 14 -14 8 -20 14 -15 14 6 0 21 -6 35 -14z m593 -12
c-13 -2 -35 -2 -50 0 -16 2 -5 4 22 4 28 0 40 -2 28 -4z m-523 -15 c0 -11 -12
-10 -30 2 -12 7 -10 9 8 7 12 0 22 -5 22 -9z m27 -3 c0 -8 -4 -15 -9 -15 -4 0
-8 7 -8 15 0 8 4 15 8 15 5 0 9 -7 9 -15z m-494 -32 c8 -39 -3 -43 -19 -9 -8
17 -8 28 -1 35 13 13 13 13 20 -26z m118 10 c25 -15 38 -33 24 -33 -12 0 -75
35 -75 42 0 13 20 9 51 -9z m2259 -32 c16 -59 36 -219 35 -276 -2 -132 -6
-161 -16 -136 -5 13 -9 38 -8 55 4 56 -13 196 -23 203 -7 4 -9 -6 -5 -28 4
-19 9 -74 12 -124 8 -115 12 -135 29 -135 18 0 32 -58 17 -73 -17 -17 -13 -29
7 -23 13 5 25 -7 49 -46 52 -89 66 -146 60 -256 -10 -175 -8 -276 7 -352 8
-41 12 -79 9 -84 -4 -5 -1 -6 7 -1 10 6 12 3 8 -13 -4 -12 -3 -20 2 -17 4 3
12 -13 18 -36 9 -36 8 -41 -12 -55 -16 -10 -41 -13 -82 -10 -72 5 -66 4 -59
16 8 13 -11 13 -52 -2 -34 -12 -36 -15 -35 -58 l1 -25 -11 28 c-12 27 -36 34
-103 27 -11 -1 26 22 82 50 143 72 152 87 121 207 -10 41 -31 62 -44 42 -10
-16 -44 27 -44 56 0 14 -6 25 -13 25 -8 0 -18 15 -24 34 -12 39 -5 46 48 46
35 0 36 11 7 82 -11 29 -24 73 -29 98 -4 25 -10 54 -12 65 -3 11 -6 22 -7 25
0 3 -7 -4 -15 -14 -13 -17 -15 -18 -21 -2 -3 9 -1 23 6 31 17 20 7 77 -19 113
-11 16 -23 40 -26 55 -7 27 -7 27 21 12 25 -12 29 -12 40 3 7 9 9 21 6 27 -4
5 -8 2 -10 -7 -5 -25 -25 -22 -53 6 -42 42 -52 57 -85 135 -29 65 -32 78 -20
96 41 64 95 165 106 198 10 31 21 43 54 58 57 26 64 24 76 -20z m-4490 -48 c0
-93 -15 -87 -25 10 -6 57 -4 67 9 67 13 0 16 -13 16 -77z m767 25 c-2 -13 -4
-5 -4 17 -1 22 1 32 4 23 2 -10 2 -28 0 -40z m1393 32 c0 -5 -4 -10 -10 -10
-5 0 -10 5 -10 10 0 6 5 10 10 10 6 0 10 -4 10 -10z m380 -26 l35 -13 -36 0
c-57 -1 -99 10 -99 26 0 16 34 12 100 -13z m345 16 c4 -6 -8 -10 -29 -10 -20
0 -36 5 -36 10 0 6 13 10 29 10 17 0 33 -4 36 -10z m-820 -10 c3 -5 2 -10 -4
-10 -5 0 -13 5 -16 10 -3 6 -2 10 4 10 5 0 13 -4 16 -10z m174 -9 c12 -8 12
-12 2 -25 -19 -23 -31 -20 -31 9 0 27 6 30 29 16z m818 -8 c-1 -15 -9 -18 -51
-15 -38 2 -47 0 -36 -7 8 -6 10 -11 5 -11 -15 0 -35 21 -35 37 0 9 17 13 59
13 51 0 60 -3 58 -17z m-299 0 c-27 -7 -21 -21 10 -26 22 -3 20 -4 -10 -6 -32
-1 -38 2 -38 19 0 15 6 20 28 19 16 -1 20 -3 10 -6z m-788 -23 c0 -5 -4 -10
-10 -10 -5 0 -10 5 -10 10 0 6 5 10 10 10 6 0 10 -4 10 -10z m578 0 c38 0 21
-20 -41 -44 l-57 -24 0 40 0 41 38 -7 c20 -3 48 -6 60 -6z m152 -6 c0 -11 -8
-14 -32 -12 -46 4 -49 28 -4 28 26 0 36 -4 36 -16z m-1943 -31 c-3 -10 -5 -4
-5 12 0 17 2 24 5 18 2 -7 2 -21 0 -30z m2137 26 c-7 -11 -64 -12 -64 -1 0 4
16 8 35 9 19 1 32 -3 29 -8z m139 4 c-7 -2 -21 -2 -30 0 -10 3 -4 5 12 5 17 0
24 -2 18 -5z m3 -24 c46 13 71 -2 41 -24 -23 -16 -130 -13 -152 5 -24 20 -8
29 34 18 26 -7 51 -6 77 1z m-768 -5 c12 -4 30 -20 38 -37 15 -28 15 -29 -1
-23 -10 3 -24 1 -31 -5 -12 -10 -13 -9 -8 5 3 9 10 16 15 16 5 0 9 4 9 9 0 5
-18 11 -40 15 -23 4 -38 11 -35 16 7 11 20 12 53 4z m414 -21 l51 -28 -60 -12
c-74 -15 -139 -41 -106 -42 12 -1 24 3 27 8 3 5 21 9 40 9 19 0 54 3 78 6 52
7 22 -5 -62 -24 -67 -16 -106 -38 -91 -53 8 -8 15 -7 23 1 30 30 27 8 -4 -30
-19 -24 -38 -53 -42 -65 -8 -26 -21 -30 -29 -9 -3 8 3 22 14 32 19 17 26 54
11 54 -5 0 -17 -16 -28 -35 -24 -45 -48 -42 -52 6 -3 33 1 39 40 62 46 28 40
37 -8 12 -29 -15 -29 -15 -32 16 -2 17 -1 37 1 44 7 16 91 57 137 66 19 4 37
7 39 8 2 0 26 -11 53 -26z m63 16 c-4 -5 -15 -9 -26 -9 -26 0 -17 15 10 17 12
1 19 -2 16 -8z m-1375 -66 c0 -68 12 -83 65 -83 l26 0 -3 -115 c-2 -68 -7
-115 -13 -115 -6 0 -5 -3 1 -8 6 -4 14 -32 18 -62 8 -67 8 -67 0 -107 -7 -38
3 -103 16 -103 4 0 6 27 3 60 -3 33 -3 60 1 60 17 0 55 -113 66 -196 15 -109
7 -186 -17 -177 -13 5 -15 3 -8 -13 15 -38 35 -238 25 -271 -4 -18 -7 -34 -4
-34 2 -1 10 -2 16 -3 14 -1 29 -74 17 -82 -13 -8 -140 -1 -145 8 -3 4 -13 8
-22 7 -11 0 -12 -3 -4 -6 6 -2 12 -11 12 -19 0 -10 -12 -13 -45 -12 -40 2 -43
4 -29 19 8 9 30 25 49 35 19 10 35 22 35 26 0 5 6 8 13 8 8 0 21 8 31 19 14
15 15 25 5 70 -6 28 -14 51 -18 51 -10 0 -27 -34 -50 -100 -20 -56 -47 -79
-111 -94 -21 -5 -20 -4 5 9 17 8 26 15 20 15 -5 1 5 9 24 18 26 13 38 29 53
71 17 43 18 55 7 62 -14 8 -6 23 14 25 47 4 46 -3 20 107 -45 198 -53 237 -62
339 -6 59 -20 127 -32 158 -12 30 -25 80 -30 110 -11 75 -30 140 -40 140 -13
0 -11 -26 5 -65 8 -18 12 -43 9 -54 -3 -11 2 -49 11 -85 10 -36 19 -107 22
-158 3 -51 9 -123 13 -160 4 -38 4 -68 1 -68 -4 0 -16 10 -28 23 -20 22 -23
40 -33 213 -6 104 -12 214 -14 244 -2 30 -4 63 -4 73 -1 9 -9 17 -18 17 -14 0
-13 4 7 24 l22 25 -22 93 c-12 51 -24 100 -26 108 -3 12 9 15 71 15 l75 0 0
-62z m-1846 42 c-4 -8 -10 -15 -15 -15 -4 0 -6 7 -3 15 4 8 10 15 15 15 4 0 6
-7 3 -15z m2321 -15 c3 -5 1 -10 -4 -10 -6 0 -11 5 -11 10 0 6 2 10 4 10 3 0
8 -4 11 -10z m1280 -10 c-3 -5 -20 -12 -38 -15 -17 -4 -36 -10 -42 -13 -5 -4
-14 -7 -20 -7 -5 0 -27 -6 -49 -14 -29 -10 -35 -16 -25 -23 11 -7 9 -8 -5 -4
-13 4 -26 -3 -46 -25 -15 -18 -30 -27 -33 -22 -3 5 13 28 36 51 35 35 53 44
102 52 95 17 106 20 100 30 -3 6 1 7 9 4 9 -3 14 -10 11 -14z m-2378 -42 c-2
-13 -4 -5 -4 17 -1 22 1 32 4 23 2 -10 2 -28 0 -40z m2201 37 c2 -1 -25 -17
-59 -35 -34 -17 -59 -26 -57 -19 2 7 21 21 42 32 20 11 35 21 32 24 -2 2 -22
-5 -45 -16 -44 -23 -72 -28 -54 -10 27 27 118 42 141 24z m-598 -24 c0 -10
-35 -21 -65 -21 -18 1 -17 2 5 15 28 16 60 19 60 6z m920 -78 c42 -53 27 -95
-109 -328 -64 -109 -169 -318 -201 -400 -13 -33 -26 -63 -30 -68 -10 -12 -69
13 -81 35 -8 15 -6 27 10 54 12 19 21 42 21 50 0 26 -19 14 -31 -20 l-13 -35
-13 26 c-15 29 -17 45 -3 23 7 -11 14 -3 29 34 12 26 21 53 21 59 0 7 11 35
25 62 13 28 25 56 25 62 0 25 103 230 149 298 67 99 69 107 13 47 -28 -30 -65
-81 -84 -114 -18 -33 -50 -90 -70 -126 -20 -37 -34 -75 -32 -84 3 -11 0 -18
-9 -18 -8 0 -17 -8 -20 -17 -4 -10 -22 -61 -41 -113 l-35 -95 0 59 c-1 87 -19
57 -23 -38 -2 -57 1 -80 10 -83 7 -3 12 4 12 19 1 22 1 22 16 -5 9 -16 13 -31
10 -34 -3 -4 -1 -12 5 -20 9 -10 8 -18 -6 -33 -26 -29 -35 -25 -36 18 l-1 37
-11 -28 c-9 -23 -16 -27 -34 -22 -13 3 -23 2 -22 -2 4 -27 -3 -34 -33 -31 -32
3 -33 5 -40 57 -3 29 -11 58 -17 64 -13 13 -14 0 -2 -60 6 -32 5 -43 -4 -43
-10 0 -15 43 -20 165 -4 91 -5 169 -1 172 3 4 6 -16 6 -44 0 -78 12 -173 22
-173 9 0 5 95 -14 277 -6 62 -15 110 -20 107 -4 -3 -8 -1 -8 5 0 5 5 13 10 16
13 8 13 65 1 65 -5 0 -12 -12 -14 -27 -2 -16 -5 6 -6 47 l-1 75 33 13 c75 31
156 74 172 92 22 24 21 24 -38 4 -26 -9 -45 -19 -42 -24 6 -10 -29 -33 -74
-48 -52 -18 -50 -5 3 19 26 11 45 23 43 26 -3 2 -27 -5 -52 -16 -54 -24 -55
-24 -55 -12 0 25 53 68 102 84 92 29 138 31 160 7 45 -48 50 -158 13 -284 -13
-47 -31 -119 -38 -161 -20 -102 0 -102 48 0 19 42 35 77 35 79 0 2 20 47 45
100 25 53 43 102 39 108 -4 7 -3 8 4 4 6 -4 16 4 23 16 6 13 34 47 63 77 31
33 43 51 31 47 -13 -5 -4 9 24 38 l43 44 49 -30 c27 -16 58 -41 69 -55z m-150
73 c0 -2 -8 -10 -17 -17 -16 -13 -17 -12 -4 4 13 16 21 21 21 13z m-1230 -103
c12 -54 33 -136 47 -183 14 -47 26 -94 28 -105 2 -11 28 -120 59 -243 31 -122
56 -229 56 -236 0 -8 -16 -16 -42 -19 -24 -3 -44 -5 -45 -4 -2 3 -125 470
-183 696 -11 44 -34 69 -25 26 22 -98 57 -233 64 -250 10 -24 15 -42 79 -303
47 -192 49 -203 32 -212 -24 -13 -47 -13 -55 1 -8 12 -26 88 -51 207 -15 75
-31 118 -40 109 -3 -2 9 -73 26 -157 16 -85 30 -155 30 -156 0 -1 -14 -5 -31
-9 -52 -12 -46 -31 -114 340 -60 326 -87 486 -83 490 2 1 13 6 25 9 18 6 23 3
27 -16 16 -88 101 -420 108 -424 15 -9 9 24 -36 204 -63 255 -63 250 -29 258
29 7 105 53 111 67 10 22 22 -3 42 -90z m135 78 c10 -17 -12 -21 -25 -6 -10
12 -10 15 3 15 9 0 18 -4 22 -9z m690 -11 c-75 -20 -102 -24 -91 -13 8 8 113
31 141 31 11 0 -11 -8 -50 -18z m-1265 0 c0 -12 -17 -12 -45 0 -17 7 -15 9 13
9 17 1 32 -3 32 -9z m855 -32 c0 -28 4 -33 23 -32 16 0 22 -5 22 -22 0 -17 7
-23 28 -26 19 -2 28 -9 30 -25 4 -26 38 -32 44 -9 2 12 6 12 21 2 17 -13 16
-29 -19 -344 -20 -181 -34 -337 -31 -346 4 -9 18 -16 33 -16 19 0 25 -4 20
-15 -4 -11 1 -15 17 -15 47 0 46 9 34 -289 l-1 -44 -83 6 c-99 7 -116 15 -79
34 l26 14 0 127 c0 153 -9 232 -25 232 -6 0 -21 9 -33 21 -18 16 -22 30 -20
61 3 34 8 44 33 58 26 14 30 23 33 62 3 42 1 46 -27 58 -46 19 -81 58 -81 91
0 16 14 71 30 122 17 52 30 104 30 117 0 12 -16 40 -35 61 -35 39 -43 73 -29
127 10 36 39 28 39 -10z m-1568 -10 c-3 -7 -5 -2 -5 12 0 14 2 19 5 13 2 -7 2
-19 0 -25z m1638 12 c-3 -5 -16 -10 -28 -10 -18 0 -19 2 -7 10 20 13 43 13 35
0z m580 -38 l-28 -27 24 31 c13 17 26 30 28 27 3 -2 -8 -16 -24 -31z m952 16
c-3 -8 -6 -5 -6 6 -1 11 2 17 5 13 3 -3 4 -12 1 -19z m-3180 -75 c-3 -10 -5
-2 -5 17 0 19 2 27 5 18 2 -10 2 -26 0 -35z m841 35 c9 -9 12 -9 12 0 0 7 10
12 23 12 17 0 22 -6 24 -28 2 -31 68 -424 83 -492 29 -140 51 -273 46 -286 -7
-17 -25 -18 -30 -1 -15 51 -98 512 -117 651 -11 82 -26 133 -35 123 -3 -3 -1
-36 5 -74 32 -192 84 -491 105 -591 16 -82 20 -117 12 -127 -14 -17 -57 -28
-72 -18 -7 5 -34 173 -63 393 -29 212 -54 400 -58 418 -5 30 -3 32 24 32 16 0
34 -5 41 -12z m839 6 c-3 -3 -12 -4 -19 -1 -8 3 -5 6 6 6 11 1 17 -2 13 -5z
m-2856 -35 c-5 -13 -10 -19 -10 -12 -1 15 10 45 15 40 3 -2 0 -15 -5 -28z
m3359 -9 c-12 -16 -24 -30 -26 -30 -7 0 5 20 24 43 24 27 25 20 2 -13z m-2193
-77 c-3 -10 -5 -2 -5 17 0 19 2 27 5 18 2 -10 2 -26 0 -35z m1843 -183 c6
-107 13 -251 16 -320 3 -69 7 -129 7 -135 1 -5 -17 -11 -40 -13 -36 -3 -43 0
-43 15 0 10 7 160 16 333 14 290 22 372 30 330 2 -8 8 -103 14 -210z m754
-255 c7 -82 13 -151 12 -152 -1 -1 -26 0 -54 4 l-52 6 -1 201 c-1 111 -2 214
-3 231 -1 17 11 56 28 89 l31 59 12 -144 c7 -79 19 -211 27 -294z m-2609 308
c-10 -69 -18 -43 -9 29 4 35 10 52 12 39 2 -13 1 -44 -3 -68z m-995 27 c13 -9
12 -12 -4 -25 -28 -21 -36 -19 -36 10 0 26 15 32 40 15z m3166 -22 c4 -7 3 -8
-4 -4 -7 4 -12 2 -12 -5 0 -7 -3 -10 -6 -6 -6 5 3 27 11 27 2 0 7 -5 11 -12z
m323 -356 c1 -178 0 -183 -19 -180 -18 3 -20 13 -25 143 -9 249 -8 288 12 330
l18 38 6 -74 c4 -41 7 -156 8 -257z m-612 216 c-2 -18 -4 -4 -4 32 0 36 2 50
4 33 2 -18 2 -48 0 -65z m-104 -19 c-4 -4 -6 13 -3 39 l5 47 3 -39 c2 -21 0
-42 -5 -47z m-1796 34 c-3 -10 -5 -4 -5 12 0 17 2 24 5 18 2 -7 2 -21 0 -30z
m3503 -3 c0 -17 -27 -36 -38 -25 -3 3 0 5 7 5 7 0 10 4 7 9 -8 13 4 42 15 35
5 -3 9 -13 9 -24z m57 0 c-1 -22 -17 -28 -17 -7 0 12 9 27 16 27 2 0 2 -9 1
-20z m-3167 -16 c0 -8 -5 -12 -10 -9 -6 4 -8 11 -5 16 9 14 15 11 15 -7z
m3740 6 c0 -5 -5 -10 -11 -10 -5 0 -7 5 -4 10 3 6 8 10 11 10 2 0 4 -4 4 -10z
m-1681 -367 c1 -76 -2 -103 -11 -103 -10 0 -13 51 -12 223 1 122 3 229 4 237
4 20 17 -231 19 -357z m-2462 300 c-3 -10 -5 -2 -5 17 0 19 2 27 5 18 2 -10 2
-26 0 -35z m-102 27 c3 -5 1 -10 -4 -10 -6 0 -11 5 -11 10 0 6 2 10 4 10 3 0
8 -4 11 -10z m1900 -157 c-6 -133 -14 -177 -30 -161 -3 2 2 69 10 147 8 79 15
147 15 152 0 5 3 9 6 9 3 0 3 -66 -1 -147z m1680 141 c13 -5 14 -8 3 -15 -19
-13 -28 -11 -28 6 0 17 2 18 25 9z m117 -71 c-6 -18 -31 -16 -38 2 -4 8 -13
15 -21 15 -21 0 -10 23 17 37 22 11 25 9 36 -15 6 -15 9 -33 6 -39z m-102 32
c11 -13 10 -14 -4 -9 -9 3 -16 10 -16 15 0 13 6 11 20 -6z m-3503 -52 c-3 -10
-5 -4 -5 12 0 17 2 24 5 18 2 -7 2 -21 0 -30z m2180 -5 c-3 -8 -6 -5 -6 6 -1
11 2 17 5 13 3 -3 4 -12 1 -19z m1513 -23 c10 -12 10 -15 -4 -15 -9 0 -16 7
-16 15 0 8 2 15 4 15 2 0 9 -7 16 -15z m-3703 -42 c-3 -10 -5 -4 -5 12 0 17 2
24 5 18 2 -7 2 -21 0 -30z m2362 -180 c-1 -98 -4 -165 -8 -149 -7 31 -3 326 5
326 2 0 3 -80 3 -177z m1346 137 c-3 -5 -10 -10 -16 -10 -5 0 -9 5 -9 10 0 6
7 10 16 10 8 0 12 -4 9 -10z m-3718 -52 c-2 -13 -4 -5 -4 17 -1 22 1 32 4 23
2 -10 2 -28 0 -40z m688 2 c10 -11 16 -20 13 -20 -3 0 -13 9 -23 20 -10 11
-16 20 -13 20 3 0 13 -9 23 -20z m2796 -51 c-17 -31 -34 -33 -40 -4 -4 22 40
60 50 43 4 -6 -1 -23 -10 -39z m-3494 -31 c-2 -13 -4 -5 -4 17 -1 22 1 32 4
23 2 -10 2 -28 0 -40z m693 42 c0 -5 -5 -10 -11 -10 -5 0 -7 5 -4 10 3 6 8 10
11 10 2 0 4 -4 4 -10z m1578 -35 c1 -1 -3 -22 -9 -46 -11 -42 -3 -159 16 -229
6 -24 6 -24 -9 -6 -15 19 -16 19 -16 1 0 -10 7 -27 17 -37 16 -18 8 -25 -12
-10 -16 12 -35 50 -35 72 0 11 -4 20 -10 20 -5 0 -10 19 -10 41 0 32 -7 49
-30 76 -33 37 -37 58 -15 87 13 17 15 17 21 3 10 -26 22 -20 29 13 6 26 10 29
33 24 15 -4 28 -8 30 -9z m-3024 -30 c-6 -23 -8 -25 -16 -11 -6 11 -6 22 3 32
16 20 21 12 13 -21z m1481 26 c3 -6 -5 -15 -17 -22 -20 -11 -21 -10 -11 3 7 8
10 18 6 21 -3 4 -1 7 5 7 6 0 13 -4 17 -9z m46 -78 c-9 -16 -10 -16 -11 3 0
12 3 37 8 55 l7 34 3 -37 c2 -21 -1 -46 -7 -55z m1362 80 c4 -3 0 -17 -8 -30
-19 -29 -13 -52 26 -106 21 -29 29 -52 29 -82 0 -32 9 -56 35 -94 l34 -52 -87
3 -87 3 -6 37 c-3 20 -14 49 -25 65 -15 23 -19 47 -19 128 l0 100 33 0 c21 0
37 6 43 18 10 18 21 21 32 10z m-1188 -23 c3 -5 1 -10 -4 -10 -6 0 -11 5 -11
10 0 6 2 10 4 10 3 0 8 -4 11 -10z m520 -37 c14 -46 7 -67 -19 -57 -10 4 -21
2 -25 -5 -11 -17 -40 -2 -46 23 -13 55 -10 69 15 77 47 14 62 6 75 -38z m535
-70 c0 -65 5 -93 20 -124 21 -41 20 -59 -6 -59 -8 0 -14 -5 -14 -11 0 -6 -18
-9 -47 -6 -40 3 -47 7 -45 23 2 10 6 76 9 147 5 114 7 127 24 127 10 0 21 5
25 12 5 7 11 5 21 -7 8 -12 13 -48 13 -102z m-1260 55 l0 -52 -30 29 -30 29
27 23 c16 12 29 22 31 23 1 0 2 -23 2 -52z m-753 10 c-3 -7 -5 -2 -5 12 0 14
2 19 5 13 2 -7 2 -19 0 -25z m1512 -18 c0 -10 -3 -8 -9 5 -12 27 -12 43 0 25
5 -8 9 -22 9 -30z m831 -60 c35 -79 96 -183 111 -188 5 -2 9 -8 9 -13 0 -5
-30 -9 -67 -9 -52 0 -64 3 -55 12 18 18 15 34 -11 60 -17 17 -26 44 -35 106
-12 78 -9 134 7 116 4 -5 22 -43 41 -84z m1465 59 c-5 -35 -9 -43 -23 -38 -8
4 13 69 22 69 3 0 3 -14 1 -31z m-2660 -1 c15 -67 14 -78 -6 -78 -10 0 -19 3
-19 8 -1 4 -5 26 -9 50 -7 37 -6 42 10 42 11 0 21 -9 24 -22z m229 -65 c4 -17
0 -23 -14 -23 -10 0 -20 -6 -23 -12 -7 -20 -49 33 -44 54 3 10 1 21 -4 24 -22
13 -7 33 29 36 39 3 39 4 56 -79z m1260 75 c-4 -6 -3 -8 3 -5 21 13 73 -5 73
-24 0 -22 -17 -24 -71 -7 -36 10 -48 26 -32 41 11 12 35 8 27 -5z m-1378 -46
c4 -26 10 -57 15 -69 5 -13 4 -25 -1 -28 -6 -4 -10 2 -10 12 0 15 -2 15 -15
-4 -14 -19 -54 -23 -56 -4 0 3 -2 15 -4 26 -11 64 -15 97 -11 103 2 4 20 8 40
9 34 1 35 1 42 -45z m2596 26 c-7 -7 -12 -8 -12 -2 0 14 12 26 19 19 2 -3 -1
-11 -7 -17z m-3055 -10 c-3 -8 -6 -5 -6 6 -1 11 2 17 5 13 3 -3 4 -12 1 -19z
m292 -1 c5 -13 11 -41 12 -62 4 -37 2 -40 -20 -37 -16 3 -21 0 -16 -9 6 -9 2
-10 -16 -5 -13 4 -30 8 -36 8 -7 1 -13 11 -13 22 0 12 -3 38 -6 58 -6 36 -5
37 27 41 19 2 40 5 47 5 7 1 16 -8 21 -21z m1866 -17 c3 -5 1 -10 -4 -10 -6 0
-11 5 -11 10 0 6 2 10 4 10 3 0 8 -4 11 -10z m-335 -33 c0 -18 -2 -19 -10 -7
-13 20 -13 43 0 35 6 -3 10 -16 10 -28z m-1894 -54 c-7 -7 -36 16 -36 27 0 5
8 10 18 12 16 3 31 -27 18 -39z m1869 24 c1 -1 7 -11 15 -21 14 -18 13 -19
-25 -12 -40 8 -58 22 -48 39 4 7 57 1 58 -6z m-3335 -33 c0 -8 -5 -12 -10 -9
-6 4 -8 11 -5 16 9 14 15 11 15 -7z m2258 -37 c6 -5 12 -17 12 -27 0 -9 10
-22 23 -28 18 -9 12 -11 -40 -11 -35 -1 -63 1 -63 3 0 3 5 17 10 31 9 23 8 26
-5 21 -21 -7 -19 11 2 22 17 10 39 6 61 -11z m1010 -13 c30 -21 28 -34 -8 -34
-25 0 -30 4 -30 25 0 29 7 31 38 9z m-1869 -25 c-16 -10 -23 -4 -14 10 3 6 11
8 17 5 6 -4 5 -9 -3 -15z m-1379 -29 c0 -11 -4 -20 -10 -20 -5 0 -10 9 -10 20
0 11 5 20 10 20 6 0 10 -9 10 -20z m64 -43 c6 -4 -2 -7 -19 -6 -44 2 -45 1
-36 -24 6 -15 5 -29 -4 -40 -11 -16 -13 -13 -17 23 -5 50 3 64 31 55 16 -5 21
-2 22 12 0 14 2 15 6 3 3 -8 11 -19 17 -23z m2136 12 c0 -14 -27 -10 -33 5 -4
10 0 12 14 9 10 -3 19 -9 19 -14z m-2010 -9 c0 -14 -20 -22 -37 -16 -12 5 -13
9 -3 21 11 14 40 10 40 -5z m2580 10 c0 -5 -4 -10 -10 -10 -5 0 -10 5 -10 10
0 6 5 10 10 10 6 0 10 -4 10 -10z m-1953 -6 c-3 -3 -12 -4 -19 -1 -8 3 -5 6 6
6 11 1 17 -2 13 -5z m2563 -51 c0 -20 -3 -24 -11 -16 -7 7 -9 19 -6 27 10 24
17 19 17 -11z m580 -53 c0 -5 -2 -10 -4 -10 -3 0 -8 5 -11 10 -3 6 -1 10 4 10
6 0 11 -4 11 -10z m-3940 -15 c0 -8 -2 -15 -4 -15 -2 0 -6 7 -10 15 -3 8 -1
15 4 15 6 0 10 -7 10 -15z m1534 -10 c-5 -11 -10 -12 -25 -2 -18 11 -18 12 -1
18 22 8 33 2 26 -16z m-1539 -34 c3 -5 1 -12 -4 -15 -5 -3 -11 1 -15 9 -6 16
9 21 19 6z m1465 5 c0 -3 -4 -8 -10 -11 -5 -3 -10 -1 -10 4 0 6 5 11 10 11 6
0 10 -2 10 -4z m3125 -6 c3 -5 1 -10 -4 -10 -6 0 -11 5 -11 10 0 6 2 10 4 10
3 0 8 -4 11 -10z m130 -10 c3 -5 1 -10 -4 -10 -6 0 -11 5 -11 10 0 6 2 10 4
10 3 0 8 -4 11 -10z"/>
<path d="M730 4026 c0 -2 15 -6 34 -8 19 -2 32 0 30 4 -5 8 -64 12 -64 4z"/>
<path d="M745 4000 c3 -5 16 -10 28 -10 18 0 19 2 7 10 -20 13 -43 13 -35 0z"/>
<path d="M850 3976 c0 -9 30 -14 35 -6 4 6 -3 10 -14 10 -12 0 -21 -2 -21 -4z"/>
<path d="M770 3856 c0 -2 7 -6 15 -10 8 -3 15 -1 15 4 0 6 -7 10 -15 10 -8 0
-15 -2 -15 -4z"/>
<path d="M658 3623 c12 -2 30 -2 40 0 9 3 -1 5 -23 4 -22 0 -30 -2 -17 -4z"/>
<path d="M833 3623 c9 -2 23 -2 30 0 6 3 -1 5 -18 5 -16 0 -22 -2 -12 -5z"/>
<path d="M1660 3534 c0 -14 3 -14 15 -4 8 7 15 14 15 16 0 2 -7 4 -15 4 -8 0
-15 -7 -15 -16z"/>
<path d="M781 3514 c0 -11 3 -14 6 -6 3 7 2 16 -1 19 -3 4 -6 -2 -5 -13z"/>
<path d="M1650 3490 c0 -5 5 -10 11 -10 5 0 7 5 4 10 -3 6 -8 10 -11 10 -2 0
-4 -4 -4 -10z"/>
<path d="M792 3460 c0 -19 2 -27 5 -17 2 9 2 25 0 35 -3 9 -5 1 -5 -18z"/>
<path d="M466 3404 c-19 -46 -79 -112 -199 -219 -37 -33 -67 -66 -67 -73 0 -7
9 -20 20 -29 21 -19 28 -39 8 -27 -7 4 -8 3 -4 -5 4 -6 12 -9 17 -5 6 3 54
-39 108 -95 l97 -101 61 0 62 0 -3 88 c-5 131 -19 184 -65 242 -21 27 -47 69
-56 94 -17 43 -17 44 8 82 23 35 45 94 36 94 -2 0 -12 -21 -23 -46z"/>
<path d="M792 3363 c-6 -20 -7 -32 -2 -27 10 10 25 64 18 64 -3 0 -10 -16 -16
-37z"/>
<path d="M1131 3330 c0 -8 4 -22 9 -30 12 -18 12 -2 0 25 -6 13 -9 15 -9 5z"/>
<path d="M908 3303 c7 -3 16 -2 19 1 4 3 -2 6 -13 5 -11 0 -14 -3 -6 -6z"/>
<path d="M1292 3180 c0 -14 2 -19 5 -12 2 6 2 18 0 25 -3 6 -5 1 -5 -13z"/>
<path d="M725 3159 c-9 -17 -14 -33 -11 -36 3 -3 9 3 12 13 4 10 14 27 22 37
9 10 11 17 4 17 -6 0 -19 -14 -27 -31z"/>
<path d="M806 3155 c8 -37 14 -45 14 -19 0 10 -5 26 -10 34 -8 11 -9 7 -4 -15z"/>
<path d="M843 3000 c0 -36 2 -50 4 -32 2 17 2 47 0 65 -2 17 -4 3 -4 -33z"/>
<path d="M930 2970 c0 -17 -7 -47 -15 -67 -19 -45 -19 -53 0 -25 16 22 33 122
21 122 -3 0 -6 -14 -6 -30z"/>
<path d="M826 2898 c-10 -38 -7 -58 9 -58 8 0 15 8 15 18 0 15 -2 15 -11 2 -7
-11 -8 -5 -3 23 7 40 0 51 -10 15z"/>
<path d="M951 2824 c0 -11 3 -14 6 -6 3 7 2 16 -1 19 -3 4 -6 -2 -5 -13z"/>
<path d="M565 2700 c-3 -5 4 -14 16 -21 16 -8 18 -13 9 -19 -9 -6 -9 -9 0 -15
13 -8 16 -7 24 20 4 15 -1 23 -19 32 -14 6 -27 7 -30 3z"/>
<path d="M520 2670 c0 -5 7 -7 15 -4 8 4 15 8 15 10 0 2 -7 4 -15 4 -8 0 -15
-4 -15 -10z"/>
<path d="M513 2585 c0 -22 2 -30 4 -17 2 12 2 30 0 40 -3 9 -5 -1 -4 -23z"/>
<path d="M522 2240 c0 -14 2 -19 5 -12 2 6 2 18 0 25 -3 6 -5 1 -5 -13z"/>
<path d="M534 2056 c14 -108 70 -246 91 -225 3 4 -1 14 -10 22 -23 24 -41 72
-60 162 -18 90 -31 114 -21 41z"/>
<path d="M635 1807 c-4 -13 -5 -48 -3 -78 3 -53 4 -54 33 -54 21 0 31 5 33 18
3 16 1 17 -17 5 -26 -16 -47 1 -36 29 10 26 13 93 3 99 -4 3 -10 -6 -13 -19z"/>
<path d="M774 1389 c-3 -6 -1 -16 5 -22 8 -8 11 -5 11 11 0 24 -5 28 -16 11z"/>
<path d="M2190 3825 c0 -8 7 -15 15 -15 8 0 15 7 15 15 0 8 -7 15 -15 15 -8 0
-15 -7 -15 -15z"/>
<path d="M4640 3580 c-8 -5 -10 -10 -5 -10 6 0 17 5 25 10 8 5 11 10 5 10 -5
0 -17 -5 -25 -10z"/>
<path d="M5490 3428 c0 -3 16 -25 35 -48 19 -23 35 -36 35 -28 0 8 -16 29 -35
48 -19 19 -35 31 -35 28z"/>
<path d="M3581 3521 c-9 -6 -4 -10 16 -14 34 -6 41 -2 16 11 -11 6 -25 7 -32
3z"/>
<path d="M3580 3480 c0 -5 7 -10 15 -10 8 0 15 5 15 10 0 6 -7 10 -15 10 -8 0
-15 -4 -15 -10z"/>
<path d="M2108 3203 c7 -3 16 -2 19 1 4 3 -2 6 -13 5 -11 0 -14 -3 -6 -6z"/>
<path d="M2136 3165 c25 -19 40 -19 24 0 -7 8 -20 15 -28 15 -13 0 -12 -3 4
-15z"/>
<path d="M4876 3464 c-5 -14 -4 -15 9 -4 17 14 19 20 6 20 -5 0 -12 -7 -15
-16z"/>
<path d="M4839 3423 c-13 -16 -12 -17 4 -4 16 13 21 21 13 21 -2 0 -10 -8 -17
-17z"/>
<path d="M4706 3273 c-6 -14 -5 -15 5 -6 7 7 10 15 7 18 -3 3 -9 -2 -12 -12z"/>
<path d="M4628 3243 c-23 -6 -23 -22 -1 -38 12 -9 23 -10 35 -4 22 12 23 29 3
29 -8 0 -15 -7 -15 -16 0 -8 -5 -12 -11 -9 -7 5 -4 14 7 26 17 19 14 21 -18
12z"/>
<path d="M5403 3125 c0 -8 4 -12 9 -9 5 3 6 10 3 15 -9 13 -12 11 -12 -6z"/>
<path d="M5460 3079 c0 -5 5 -7 10 -4 6 3 10 8 10 11 0 2 -4 4 -10 4 -5 0 -10
-5 -10 -11z"/>
<path d="M3552 2940 c0 -14 2 -19 5 -12 2 6 2 18 0 25 -3 6 -5 1 -5 -13z"/>
<path d="M3542 2890 c0 -14 2 -19 5 -12 2 6 2 18 0 25 -3 6 -5 1 -5 -13z"/>
<path d="M4420 2845 c0 -17 29 -34 48 -28 6 3 12 14 12 26 0 20 0 20 -14 1
-14 -18 -15 -18 -21 -1 -9 21 -25 23 -25 2z"/>
<path d="M2091 2774 c0 -11 3 -14 6 -6 3 7 2 16 -1 19 -3 4 -6 -2 -5 -13z"/>
<path d="M2041 2764 c0 -11 3 -14 6 -6 3 7 2 16 -1 19 -3 4 -6 -2 -5 -13z"/>
<path d="M2121 2764 c0 -11 3 -14 6 -6 3 7 2 16 -1 19 -3 4 -6 -2 -5 -13z"/>
<path d="M2061 2744 c0 -11 3 -14 6 -6 3 7 2 16 -1 19 -3 4 -6 -2 -5 -13z"/>
<path d="M2082 2720 c0 -14 2 -19 5 -12 2 6 2 18 0 25 -3 6 -5 1 -5 -13z"/>
<path d="M2001 2714 c0 -11 3 -14 6 -6 3 7 2 16 -1 19 -3 4 -6 -2 -5 -13z"/>
<path d="M2111 2704 c0 -11 3 -14 6 -6 3 7 2 16 -1 19 -3 4 -6 -2 -5 -13z"/>
<path d="M1991 2664 c0 -11 3 -14 6 -6 3 7 2 16 -1 19 -3 4 -6 -2 -5 -13z"/>
<path d="M2072 2655 c0 -16 2 -22 5 -12 2 9 2 23 0 30 -3 6 -5 -1 -5 -18z"/>
<path d="M2102 2635 c0 -16 2 -22 5 -12 2 9 2 23 0 30 -3 6 -5 -1 -5 -18z"/>
<path d="M2012 2620 c0 -14 2 -19 5 -12 2 6 2 18 0 25 -3 6 -5 1 -5 -13z"/>
<path d="M1981 2614 c0 -11 3 -14 6 -6 3 7 2 16 -1 19 -3 4 -6 -2 -5 -13z"/>
<path d="M2032 2590 c0 -14 2 -19 5 -12 2 6 2 18 0 25 -3 6 -5 1 -5 -13z"/>
<path d="M2062 2590 c0 -14 2 -19 5 -12 2 6 2 18 0 25 -3 6 -5 1 -5 -13z"/>
<path d="M2131 2594 c0 -11 3 -14 6 -6 3 7 2 16 -1 19 -3 4 -6 -2 -5 -13z"/>
<path d="M2092 2570 c0 -19 2 -27 5 -17 2 9 2 25 0 35 -3 9 -5 1 -5 -18z"/>
<path d="M1972 2560 c0 -14 2 -19 5 -12 2 6 2 18 0 25 -3 6 -5 1 -5 -13z"/>
<path d="M2163 2545 c0 -22 2 -30 4 -17 2 12 2 30 0 40 -3 9 -5 -1 -4 -23z"/>
<path d="M2046 2499 c-4 -33 -5 -63 -3 -66 3 -2 8 23 12 57 4 34 5 63 2 66 -2
3 -7 -23 -11 -57z"/>
<path d="M2022 2525 c0 -16 2 -22 5 -12 2 9 2 23 0 30 -3 6 -5 -1 -5 -18z"/>
<path d="M2122 2510 c0 -19 2 -27 5 -17 2 9 2 25 0 35 -3 9 -5 1 -5 -18z"/>
<path d="M1952 2469 c-7 -36 -12 -74 -11 -85 1 -10 7 15 15 56 8 41 12 80 10
85 -1 6 -8 -20 -14 -56z"/>
<path d="M1992 2510 c0 -14 2 -19 5 -12 2 6 2 18 0 25 -3 6 -5 1 -5 -13z"/>
<path d="M2082 2495 c0 -16 2 -22 5 -12 2 9 2 23 0 30 -3 6 -5 -1 -5 -18z"/>
<path d="M2012 2465 c0 -16 2 -22 5 -12 2 9 2 23 0 30 -3 6 -5 -1 -5 -18z"/>
<path d="M2153 2450 c0 -25 2 -35 4 -22 2 12 2 32 0 45 -2 12 -4 2 -4 -23z"/>
<path d="M1982 2450 c0 -14 2 -19 5 -12 2 6 2 18 0 25 -3 6 -5 1 -5 -13z"/>
<path d="M2113 2415 c0 -27 2 -38 4 -22 2 15 2 37 0 50 -2 12 -4 0 -4 -28z"/>
<path d="M2073 2405 c0 -22 2 -30 4 -17 2 12 2 30 0 40 -3 9 -5 -1 -4 -23z"/>
<path d="M2003 2395 c0 -22 2 -30 4 -17 2 12 2 30 0 40 -3 9 -5 -1 -4 -23z"/>
<path d="M2142 2350 c0 -19 2 -27 5 -17 2 9 2 25 0 35 -3 9 -5 1 -5 -18z"/>
<path d="M1932 2335 c0 -16 2 -22 5 -12 2 9 2 23 0 30 -3 6 -5 -1 -5 -18z"/>
<path d="M2063 2315 c0 -22 2 -30 4 -17 2 12 2 30 0 40 -3 9 -5 -1 -4 -23z"/>
<path d="M2133 2255 c0 -22 2 -30 4 -17 2 12 2 30 0 40 -3 9 -5 -1 -4 -23z"/>
<path d="M2312 2805 c0 -11 4 -31 8 -45 6 -20 8 -21 8 -5 0 11 -4 31 -8 45 -6
20 -8 21 -8 5z"/>
<path d="M2251 2784 c0 -11 3 -14 6 -6 3 7 2 16 -1 19 -3 4 -6 -2 -5 -13z"/>
<path d="M2351 2774 c0 -11 3 -14 6 -6 3 7 2 16 -1 19 -3 4 -6 -2 -5 -13z"/>
<path d="M2336 2728 c-3 -13 -5 -32 -5 -43 1 -11 5 -2 10 19 10 42 6 62 -5 24z"/>
<path d="M2262 2655 c0 -16 2 -22 5 -12 2 9 2 23 0 30 -3 6 -5 -1 -5 -18z"/>
<path d="M2342 2635 c0 -16 2 -22 5 -12 2 9 2 23 0 30 -3 6 -5 -1 -5 -18z"/>
<path d="M2322 2620 c0 -14 2 -19 5 -12 2 6 2 18 0 25 -3 6 -5 1 -5 -13z"/>
<path d="M2411 2624 c0 -11 3 -14 6 -6 3 7 2 16 -1 19 -3 4 -6 -2 -5 -13z"/>
<path d="M2301 2594 c0 -11 3 -14 6 -6 3 7 2 16 -1 19 -3 4 -6 -2 -5 -13z"/>
<path d="M2372 2590 c0 -14 2 -19 5 -12 2 6 2 18 0 25 -3 6 -5 1 -5 -13z"/>
<path d="M2241 2584 c0 -11 3 -14 6 -6 3 7 2 16 -1 19 -3 4 -6 -2 -5 -13z"/>
<path d="M2332 2550 c0 -14 2 -19 5 -12 2 6 2 18 0 25 -3 6 -5 1 -5 -13z"/>
<path d="M2381 2544 c0 -11 3 -14 6 -6 3 7 2 16 -1 19 -3 4 -6 -2 -5 -13z"/>
<path d="M2432 2540 c0 -8 6 -31 13 -50 7 -19 13 -28 13 -20 0 8 -6 31 -13 50
-7 19 -13 28 -13 20z"/>
<path d="M2361 2524 c0 -11 3 -14 6 -6 3 7 2 16 -1 19 -3 4 -6 -2 -5 -13z"/>
<path d="M2317 2470 c3 -25 7 -47 9 -49 8 -9 2 55 -6 74 -6 13 -7 5 -3 -25z"/>
<path d="M2342 2490 c0 -14 2 -19 5 -12 2 6 2 18 0 25 -3 6 -5 1 -5 -13z"/>
<path d="M2253 2445 c0 -33 2 -45 4 -27 2 18 2 45 0 60 -2 15 -4 0 -4 -33z"/>
<path d="M2282 2480 c0 -14 2 -19 5 -12 2 6 2 18 0 25 -3 6 -5 1 -5 -13z"/>
<path d="M2371 2474 c0 -11 3 -14 6 -6 3 7 2 16 -1 19 -3 4 -6 -2 -5 -13z"/>
<path d="M2352 2430 c0 -19 2 -27 5 -17 2 9 2 25 0 35 -3 9 -5 1 -5 -18z"/>
<path d="M2431 2444 c0 -11 3 -14 6 -6 3 7 2 16 -1 19 -3 4 -6 -2 -5 -13z"/>
<path d="M2461 2434 c0 -11 3 -14 6 -6 3 7 2 16 -1 19 -3 4 -6 -2 -5 -13z"/>
<path d="M2490 2438 c0 -20 21 -81 31 -93 5 -5 2 15 -7 45 -17 59 -24 72 -24
48z"/>
<path d="M2382 2420 c0 -14 2 -19 5 -12 2 6 2 18 0 25 -3 6 -5 1 -5 -13z"/>
<path d="M2411 2420 c0 -14 6 -45 13 -70 18 -56 19 -23 1 45 -8 32 -13 41 -14
25z"/>
<path d="M2332 2380 c0 -19 2 -27 5 -17 2 9 2 25 0 35 -3 9 -5 1 -5 -18z"/>
<path d="M2476 2370 c3 -25 11 -49 16 -55 7 -7 8 2 3 25 -13 59 -26 80 -19 30z"/>
<path d="M2362 2365 c0 -16 2 -22 5 -12 2 9 2 23 0 30 -3 6 -5 -1 -5 -18z"/>
<path d="M2392 2370 c0 -14 2 -19 5 -12 2 6 2 18 0 25 -3 6 -5 1 -5 -13z"/>
<path d="M2233 2310 c0 -25 2 -35 4 -22 2 12 2 32 0 45 -2 12 -4 2 -4 -23z"/>
<path d="M2402 2320 c0 -14 2 -19 5 -12 2 6 2 18 0 25 -3 6 -5 1 -5 -13z"/>
<path d="M2342 2300 c0 -19 2 -27 5 -17 2 9 2 25 0 35 -3 9 -5 1 -5 -18z"/>
<path d="M2460 2305 c0 -8 4 -15 10 -15 5 0 7 7 4 15 -4 8 -8 15 -10 15 -2 0
-4 -7 -4 -15z"/>
<path d="M2442 2275 c0 -16 2 -22 5 -12 2 9 2 23 0 30 -3 6 -5 -1 -5 -18z"/>
<path d="M2495 2290 c3 -5 8 -10 11 -10 2 0 4 5 4 10 0 6 -5 10 -11 10 -5 0
-7 -4 -4 -10z"/>
<path d="M2400 2281 c0 -6 5 -13 10 -16 6 -3 10 1 10 9 0 9 -4 16 -10 16 -5 0
-10 -4 -10 -9z"/>
<path d="M2357 2190 c3 -41 9 -84 14 -95 l8 -20 0 20 c0 11 -6 54 -14 95 l-14
75 6 -75z"/>
<path d="M2418 2210 c2 -16 6 -30 8 -30 2 0 4 14 4 30 0 17 -4 30 -8 30 -5 0
-7 -13 -4 -30z"/>
<path d="M2480 2746 c0 -2 8 -10 18 -17 15 -13 16 -12 3 4 -13 16 -21 21 -21
13z"/>
<path d="M2576 2587 c3 -10 9 -15 12 -12 3 3 0 11 -7 18 -10 9 -11 8 -5 -6z"/>
<path d="M3047 2373 c-4 -3 -7 -11 -7 -17 0 -6 5 -5 12 2 6 6 9 14 7 17 -3 3
-9 2 -12 -2z"/>
<path d="M3131 2304 c0 -11 3 -14 6 -6 3 7 2 16 -1 19 -3 4 -6 -2 -5 -13z"/>
<path d="M3081 2274 c0 -11 3 -14 6 -6 3 7 2 16 -1 19 -3 4 -6 -2 -5 -13z"/>
<path d="M3126 2264 c-10 -25 -7 -74 4 -74 6 0 10 20 10 45 0 47 -4 55 -14 29z"/>
<path d="M3162 2250 c0 -19 2 -27 5 -17 2 9 2 25 0 35 -3 9 -5 1 -5 -18z"/>
<path d="M3156 2202 c-2 -4 -1 -14 5 -22 7 -12 9 -10 9 8 0 23 -5 28 -14 14z"/>
<path d="M3153 2145 c-3 -9 -3 -18 -1 -21 3 -3 8 4 11 16 6 23 -1 27 -10 5z"/>
<path d="M1041 2630 c0 -8 4 -22 9 -30 12 -18 12 -2 0 25 -6 13 -9 15 -9 5z"/>
<path d="M952 2605 c0 -11 4 -31 8 -45 6 -20 8 -21 8 -5 0 11 -4 31 -8 45 -6
20 -8 21 -8 5z"/>
<path d="M4997 2473 c-4 -3 -7 -11 -7 -17 0 -6 5 -5 12 2 6 6 9 14 7 17 -3 3
-9 2 -12 -2z"/>
<path d="M5117 2419 c-10 -11 -16 -28 -14 -37 3 -15 5 -14 12 3 4 11 17 28 29
37 15 13 17 17 6 17 -8 0 -23 -10 -33 -20z"/>
<path d="M5067 2303 c-3 -16 -8 -37 -12 -48 -3 -11 3 -2 14 20 22 46 24 55 12
55 -5 0 -11 -12 -14 -27z"/>
<path d="M4785 2230 c-19 -38 -35 -73 -35 -77 0 -10 58 92 71 125 18 46 -2 19
-36 -48z"/>
<path d="M4730 2110 c-7 -17 -10 -33 -8 -36 3 -3 11 9 17 27 14 42 7 49 -9 9z"/>
<path d="M5005 2077 c-16 -34 -54 -97 -83 -140 -30 -43 -51 -81 -48 -84 5 -6
36 21 36 32 0 3 5 11 11 18 29 33 122 213 117 228 -2 5 -16 -19 -33 -54z"/>
<path d="M4768 1737 c-9 -20 -12 -40 -7 -52 7 -18 8 -18 8 -2 1 10 8 31 16 47
8 16 11 31 7 34 -5 3 -16 -9 -24 -27z"/>
<path d="M4642 1685 c-14 -31 -15 -35 -4 -35 8 0 32 43 32 55 0 15 -19 1 -28
-20z"/>
<path d="M4695 1559 c-10 -30 0 -33 13 -4 6 14 7 25 2 25 -5 0 -12 -9 -15 -21z"/>
<path d="M4410 919 c0 -5 5 -7 10 -4 6 3 10 8 10 11 0 2 -4 4 -10 4 -5 0 -10
-5 -10 -11z"/>
<path d="M2596 2337 c3 -10 9 -15 12 -12 3 3 0 11 -7 18 -10 9 -11 8 -5 -6z"/>
<path d="M2647 2299 c4 -13 8 -18 11 -10 2 7 -1 18 -6 23 -8 8 -9 4 -5 -13z"/>
<path d="M1115 1826 c6 -26 29 -55 46 -56 3 0 12 -18 19 -40 7 -22 19 -40 27
-40 17 0 17 5 -4 36 -13 20 -14 30 -5 44 12 20 4 34 -12 21 -13 -11 -34 3 -60
39 l-18 25 7 -29z"/>
<path d="M1205 1480 c3 -19 8 -59 11 -87 4 -29 10 -53 14 -53 8 0 -6 103 -20
145 l-10 30 5 -35z"/>
<path d="M1340 912 c0 -6 3 -17 6 -26 7 -18 34 -10 34 12 0 8 -3 12 -7 9 -3
-4 -12 -2 -20 4 -8 8 -13 8 -13 1z"/>
<path d="M5277 1650 c3 -47 10 -92 14 -100 10 -17 2 94 -11 150 -5 22 -6 3 -3
-50z"/>
<path d="M5192 1651 c-9 -5 -11 -17 -6 -34 9 -38 19 -33 20 8 0 19 0 35 0 35
-1 0 -7 -4 -14 -9z"/>
<path d="M5260 1210 c0 -16 4 -30 9 -30 12 0 19 21 13 43 -7 28 -22 20 -22
-13z"/>
<path d="M5400 983 c0 -19 -5 -33 -12 -33 -9 0 -9 -3 -1 -11 26 -26 45 26 23
61 -7 11 -10 7 -10 -17z"/>
<path d="M2122 1758 c-11 -14 0 -52 18 -63 9 -6 9 -2 2 12 -6 11 -8 29 -5 41
6 25 0 28 -15 10z"/>
<path d="M3866 1828 c-32 -55 -115 -232 -151 -323 -15 -38 -36 -87 -46 -107
-21 -40 -24 -58 -11 -58 9 0 46 82 123 269 8 19 39 86 70 148 55 111 64 154
15 71z"/>
<path d="M3363 1813 c-7 -2 -13 -14 -13 -25 0 -13 5 -18 14 -15 10 4 15 -8 20
-46 6 -48 19 -118 63 -350 10 -52 20 -82 25 -74 4 8 -2 63 -13 123 -11 60 -26
143 -33 184 -32 173 -40 210 -45 209 -3 0 -12 -3 -18 -6z"/>
<path d="M3475 4380 c-14 -6 1 -9 48 -9 37 -1 67 3 67 7 0 11 -91 12 -115 2z"/>
<path d="M3610 4380 c0 -5 23 -10 50 -10 28 0 50 5 50 10 0 6 -22 10 -50 10
-27 0 -50 -4 -50 -10z"/>
<path d="M3730 4380 c0 -6 37 -10 90 -10 53 0 90 4 90 10 0 6 -37 10 -90 10
-53 0 -90 -4 -90 -10z"/>
<path d="M3935 4380 c-13 -6 4 -8 52 -7 40 0 70 4 67 9 -7 10 -93 9 -119 -2z"/>
<path d="M4455 4380 c-13 -6 10 -9 68 -9 56 -1 86 3 82 9 -7 12 -122 12 -150
0z"/>
<path d="M4881 3949 c-7 -23 -15 -48 -17 -58 -3 -9 6 5 18 31 18 38 26 46 38
38 13 -8 13 -10 -2 -10 -11 0 -15 -5 -12 -15 4 -8 17 -15 31 -15 19 0 24 -4
19 -16 -3 -8 -2 -12 4 -9 20 12 9 45 -23 69 -19 15 -36 26 -39 26 -3 0 -10
-18 -17 -41z"/>
<path d="M5291 3974 c0 -11 3 -14 6 -6 3 7 2 16 -1 19 -3 4 -6 -2 -5 -13z"/>
<path d="M5093 3922 c18 -20 22 -42 9 -42 -5 0 -14 -12 -21 -27 l-13 -28 25
23 c32 30 39 58 20 77 -21 22 -39 18 -20 -3z"/>
<path d="M5036 3838 c3 -5 10 -6 15 -3 13 9 11 12 -6 12 -8 0 -12 -4 -9 -9z"/>
<path d="M5112 3720 c0 -19 2 -27 5 -17 2 9 2 25 0 35 -3 9 -5 1 -5 -18z"/>
<path d="M5110 3495 c-14 -16 -3 -20 19 -6 8 5 9 11 3 15 -5 3 -15 -1 -22 -9z"/>
<path d="M5266 3200 c8 -43 14 -51 14 -19 0 13 -5 31 -10 39 -7 11 -8 5 -4
-20z"/>
<path d="M5281 3134 c0 -11 3 -14 6 -6 3 7 2 16 -1 19 -3 4 -6 -2 -5 -13z"/>
<path d="M5261 3044 c0 -11 3 -14 6 -6 3 7 2 16 -1 19 -3 4 -6 -2 -5 -13z"/>
<path d="M5064 2924 c-18 -14 -18 -14 6 -3 31 14 36 19 24 19 -6 0 -19 -7 -30
-16z"/>
<path d="M4932 2830 c0 -14 2 -19 5 -12 2 6 2 18 0 25 -3 6 -5 1 -5 -13z"/>
<path d="M4961 2753 c0 -6 -4 -20 -7 -30 -5 -14 -4 -15 5 -7 7 7 11 20 8 30
-3 11 -5 14 -6 7z"/>
<path d="M658 554 c-3 -2 -152 -4 -331 -4 l-327 0 0 -25 0 -25 114 0 114 0 1
-100 c1 -56 4 -106 7 -113 3 -8 34 -11 107 -10 56 1 119 2 140 3 l37 0 0 105
0 104 -67 4 -68 3 83 2 82 2 1 -87 c1 -49 2 -97 3 -108 1 -19 8 -20 146 -20
l145 0 0 100 0 100 -113 2 -113 2 3 -72 3 -72 87 0 c47 0 84 -3 81 -7 -2 -5
-46 -8 -97 -8 l-94 0 -1 79 c-1 48 3 82 9 86 13 8 251 8 258 0 3 -3 6 -50 8
-106 1 -55 4 -102 7 -105 7 -7 267 -5 279 2 4 3 8 50 8 105 l0 100 -112 -3
-113 -3 -3 -63 c-2 -38 2 -69 9 -78 9 -11 8 -14 -5 -14 -13 0 -16 13 -16 85
l0 85 135 0 135 0 0 -63 c0 -37 5 -69 13 -76 10 -11 10 -14 0 -18 -7 -3 -13
-16 -13 -29 0 -24 14 -32 25 -14 9 15 48 12 72 -5 12 -8 32 -15 45 -14 13 1
51 1 84 1 l62 -1 4 35 c2 21 0 33 -6 31 -6 -2 -10 -12 -10 -21 1 -9 -2 -16 -7
-16 -12 0 -11 31 1 50 5 8 10 11 10 5 0 -5 4 -4 8 3 5 7 7 27 6 45 -4 85 7 76
-106 80 l-103 3 118 2 117 2 1 -37 c0 -21 0 -59 -1 -85 -3 -86 13 -105 59 -69
19 15 21 19 8 24 -12 5 -15 21 -13 81 2 67 9 98 19 85 2 -2 1 -37 -2 -76 -7
-84 -9 -82 82 -85 l62 -2 -51 -3 c-35 -3 -57 -10 -69 -23 -16 -18 -16 -19 6
-24 39 -9 208 -12 196 -4 -7 4 -7 8 -2 8 6 0 9 38 7 100 l-3 99 -107 4 -107 3
123 2 123 2 -3 -107 -3 -108 127 -5 c127 -5 170 -2 169 13 -1 4 -1 50 -1 101
l0 95 -52 4 c-49 3 -47 3 16 5 l68 2 -4 -30 c-3 -16 -2 -30 1 -30 3 0 6 -35 6
-77 l0 -78 145 0 145 0 3 53 c2 30 -2 59 -7 66 -7 9 -7 16 0 23 6 6 9 21 7 34
-3 23 -6 24 -114 27 l-112 3 -1 -76 -1 -76 85 3 c47 2 85 0 85 -4 0 -5 -43 -8
-95 -8 l-96 0 2 56 c2 39 -2 59 -12 65 -10 6 -10 9 -1 9 6 0 12 9 12 20 0 19
7 20 135 20 l134 0 3 -107 3 -108 148 -3 147 -3 0 106 0 105 -52 0 c-29 0 -71
-7 -93 -14 -22 -8 -41 -10 -43 -5 -2 5 -12 9 -23 9 -18 0 -20 -6 -17 -67 l3
-68 87 0 c47 0 84 -3 81 -7 -2 -5 -45 -8 -94 -8 l-90 0 3 81 3 82 44 13 c24 7
48 11 55 8 6 -2 45 -7 86 -12 l75 -7 3 -107 3 -108 143 0 c166 0 151 -11 151
120 l0 85 -112 3 -112 3 -3 -28 c-2 -15 -1 -49 0 -75 l4 -48 78 0 c74 0 79 1
83 23 4 19 4 18 6 -5 l1 -28 -94 0 -94 0 -1 85 -1 85 135 0 135 0 0 -79 c0
-67 3 -80 18 -84 15 -4 15 -5 -2 -6 -12 -1 -16 -6 -12 -17 3 -9 6 -20 6 -25 0
-6 23 -8 58 -4 32 3 77 2 100 -3 27 -6 44 -6 48 0 3 5 12 7 20 4 7 -3 16 -1
19 4 4 6 -1 10 -9 10 -8 0 -19 7 -24 16 -8 14 -24 17 -88 15 l-79 -2 2 78 c0
43 2 81 2 86 1 4 60 7 131 7 111 0 132 -2 137 -16 3 -9 0 -20 -8 -25 -10 -6
-10 -9 -2 -9 9 0 11 -11 8 -35 -5 -39 0 -42 33 -19 17 12 22 25 22 60 l0 44
135 0 135 0 0 -110 0 -110 143 0 c79 0 147 4 152 9 6 6 8 50 5 103 -5 88 -6
92 -30 99 -21 6 -20 7 13 8 l37 1 0 -110 c0 -91 3 -110 15 -111 89 -5 309 2
297 10 -10 6 -13 33 -10 105 l3 96 -117 0 c-103 0 -117 -2 -121 -17 -4 -14 -5
-12 -6 5 -1 22 0 22 134 22 l135 0 0 -110 0 -110 145 0 c80 0 145 1 146 3 5
23 9 166 5 183 -6 23 -9 24 -115 24 l-109 0 -4 -71 c-2 -49 1 -73 9 -76 6 -3
46 -3 87 -1 42 2 76 0 76 -4 0 -5 -43 -8 -95 -8 l-95 0 0 85 0 85 135 0 134 0
3 -107 3 -108 145 0 145 0 0 100 0 100 -105 6 -105 5 123 2 122 2 0 -109 0
-110 140 -3 c117 -3 141 -1 146 12 9 23 5 183 -4 192 -5 5 -56 7 -113 6 l-104
-3 0 -70 1 -70 79 0 80 0 7 35 6 35 -1 -40 -2 -40 -92 -3 -93 -3 -1 26 c0 14
0 48 0 75 0 28 0 55 0 60 1 6 53 10 136 10 l135 0 0 -111 0 -110 89 2 c49 1
94 -1 100 -5 7 -5 9 -1 4 10 -5 14 -2 16 19 11 18 -5 28 -2 31 7 7 17 -19 25
-88 28 -46 1 -47 2 -10 5 82 7 85 9 85 58 0 25 5 45 10 45 6 0 10 -6 10 -14 0
-8 6 -17 13 -19 9 -4 9 -6 0 -6 -7 -1 -13 -8 -13 -16 0 -8 6 -15 13 -15 8 0 7
-3 -3 -10 -12 -8 -11 -12 8 -30 24 -23 24 -22 23 50 0 24 5 48 12 52 9 6 9 8
0 8 -8 0 -13 14 -13 38 1 33 2 35 14 20 7 -10 15 -16 17 -14 2 3 4 -32 3 -77
-1 -135 -8 -127 107 -127 99 0 99 0 99 25 0 25 -1 25 -80 25 l-80 0 0 69 c0
101 0 101 86 101 72 0 74 1 74 25 l0 25 -109 0 c-66 0 -112 -4 -116 -10 -5 -8
-11 -7 -21 0 -8 8 -53 11 -126 10 -62 -1 -122 -2 -133 -2 -187 1 -2649 1
-3535 -1 -942 -2 -1184 -5 -1182 -14 1 -7 -5 -13 -13 -13 -8 0 -15 6 -15 14 0
14 -24 29 -32 20z m4870 -48 c30 -1 36 -5 37 -25 1 -14 7 -27 13 -29 24 -8 12
-24 -13 -18 -21 5 -25 3 -26 -16 -1 -13 -5 -4 -11 20 -7 32 -14 42 -29 42 -15
0 -19 -7 -20 -37 -2 -66 2 -88 19 -100 14 -11 13 -13 -9 -13 -34 0 -40 7 -29
36 6 14 6 26 0 29 -10 6 -6 97 5 115 4 6 11 7 17 4 6 -4 27 -7 46 -8z m-5185
-13 l-43 -4 0 -80 c0 -48 -4 -79 -10 -79 -7 0 -10 32 -9 85 l2 85 51 -2 c50
-1 50 -2 9 -5z m933 -10 c-5 -17 -9 -89 -7 -125 1 -14 13 -18 64 -21 60 -3 60
-3 -17 -5 -68 -2 -77 0 -72 14 3 9 6 47 6 85 0 56 3 69 16 69 10 0 14 -6 10
-17z m699 8 l-60 -6 0 -70 0 -70 40 -6 40 -6 -47 -2 -48 -1 0 85 0 85 68 -2
67 -1 -60 -6z m1968 2 l-83 -4 0 -74 c0 -73 0 -74 28 -78 22 -3 20 -4 -10 -6
l-38 -1 0 78 c0 43 3 82 7 85 3 4 45 6 92 5 l86 -2 -82 -3z m889 -72 l-3 -80
38 -4 c34 -4 33 -4 -7 -3 l-45 1 -3 60 c-3 62 3 105 16 105 4 0 6 -36 4 -79z
m813 69 c-27 -4 -54 -3 -59 1 -6 5 15 8 50 8 l59 -2 -50 -7z m-4923 -52 c-6
-6 -15 -8 -19 -4 -4 4 -1 11 7 16 19 12 27 3 12 -12z m3459 -5 c1 -10 2 -34 3
-53 l1 -35 80 0 80 0 6 45 6 45 1 -52 2 -53 -95 0 -95 0 0 44 c0 24 -3 51 -6
60 -3 9 -1 16 5 16 6 0 12 -8 12 -17z m-3709 -37 c-6 -48 -12 -46 -12 5 0 22
4 38 8 35 4 -3 6 -21 4 -40z m210 19 c3 -14 1 -25 -3 -25 -5 0 -9 11 -9 25 0
14 2 25 4 25 2 0 6 -11 8 -25z m114 6 c0 -11 -4 -17 -8 -15 -4 3 -8 12 -8 20
0 8 4 14 8 14 4 0 8 -9 8 -19z m320 -89 c-11 -10 -12 3 -7 58 l6 55 3 -54 c2
-29 1 -56 -2 -59z m329 18 c-1 -8 -13 -16 -26 -18 -22 -2 -23 -1 -6 11 11 9
17 29 18 58 l1 44 8 -40 c4 -22 7 -46 5 -55z m322 68 c-3 -8 -6 -5 -6 6 -1 11
2 17 5 13 3 -3 4 -12 1 -19z m325 -42 c-4 -43 -6 -46 -31 -45 -23 2 -24 2 -3
6 19 4 22 10 22 56 0 29 4 47 8 40 4 -6 6 -32 4 -57z m531 49 c-3 -9 -8 -14
-10 -11 -3 3 -2 9 2 15 9 16 15 13 8 -4z m2264 -7 c-3 -8 -6 -5 -6 6 -1 11 2
17 5 13 3 -3 4 -12 1 -19z m443 12 c0 -5 -2 -10 -4 -10 -3 0 -8 5 -11 10 -3 6
-1 10 4 10 6 0 11 -4 11 -10z m-1375 -35 c22 -16 42 -33 43 -37 2 -5 10 -8 18
-8 8 0 14 -4 14 -10 0 -6 -25 -10 -57 -9 -53 1 -55 2 -29 11 l28 10 -46 29
c-25 16 -46 33 -46 38 0 17 36 5 75 -24z m-1218 -22 c-3 -10 -5 -2 -5 17 0 19
2 27 5 18 2 -10 2 -26 0 -35z m320 25 c-3 -8 -6 -5 -6 6 -1 11 2 17 5 13 3 -3
4 -12 1 -19z m1950 -25 c-3 -10 -5 -2 -5 17 0 19 2 27 5 18 2 -10 2 -26 0 -35z
m-2343 6 c-3 -5 -10 -7 -15 -3 -5 3 -7 10 -3 15 3 5 10 7 15 3 5 -3 7 -10 3
-15z m-899 -38 c-3 -6 -11 -11 -16 -11 -5 0 -4 6 3 14 14 16 24 13 13 -3z
m-1295 -1 c0 -6 -31 -9 -77 -8 l-78 2 75 6 c41 4 76 7 78 8 1 1 2 -2 2 -8z
m4530 0 c0 -5 -21 -9 -47 -8 l-48 1 45 7 c25 4 46 8 48 8 1 1 2 -2 2 -8z
m-3952 -7 c-16 -2 -40 -2 -55 0 -16 2 -3 4 27 4 30 0 43 -2 28 -4z"/>
<path d="M0 415 l0 -76 68 3 67 3 6 50 6 50 1 -57 2 -58 -75 0 c-73 0 -75 -1
-75 -25 l0 -25 100 0 100 0 0 105 0 105 -100 0 -100 0 0 -75z m33 10 c-3 -9
-8 -14 -10 -11 -3 3 -2 9 2 15 9 16 15 13 8 -4z"/>
<path d="M3210 415 l0 -75 29 0 c17 0 33 5 36 10 4 6 16 10 28 9 43 -4 68 1
66 14 -3 25 1 38 11 32 6 -4 8 -10 6 -14 -3 -4 4 -22 15 -40 11 -18 18 -38 17
-44 -2 -7 2 -13 7 -15 6 -1 11 38 12 98 l3 100 -115 0 -115 0 0 -75z"/>
<path d="M3535 480 c-13 -21 7 -120 26 -130 12 -7 20 -7 24 0 4 7 12 7 25 0
10 -5 34 -10 54 -10 l35 0 4 53 3 52 2 -57 2 -58 -39 0 c-45 0 -58 -12 -36
-33 13 -14 42 -16 113 -8 9 1 12 28 12 101 l0 100 -109 0 c-64 0 -112 -4 -116
-10z"/>
<path d="M5806 481 c-8 -13 -10 -117 -2 -130 4 -6 34 -11 72 -11 l64 0 0 75 0
75 -64 0 c-36 0 -67 -4 -70 -9z m51 -78 c-3 -10 -5 -4 -5 12 0 17 2 24 5 18 2
-7 2 -21 0 -30z"/>
<path d="M3468 363 c-2 -5 -3 -24 -3 -43 0 -34 2 -35 42 -41 23 -3 57 -3 76
-1 32 4 34 5 23 28 -9 20 -18 24 -53 24 -24 0 -43 4 -43 10 0 12 -38 33 -42
23z"/>
<path d="M3226 263 c-3 -4 -365 -8 -804 -10 -438 -2 -808 -4 -822 -5 -14 0
-63 0 -110 1 -47 0 -101 -1 -120 -2 -34 -2 -35 -3 -35 -47 0 -46 -2 -48 -42
-35 -15 4 -23 2 -23 -5 0 -6 -10 -10 -23 -8 -21 3 -25 18 -17 53 7 27 -2 45
-21 45 -16 0 -19 -4 -14 -20 5 -16 3 -19 -12 -14 -10 4 -23 12 -28 19 -16 20
-112 24 -100 5 3 -5 0 -10 -9 -10 -8 0 -16 4 -18 10 -4 13 -117 15 -130 2 -8
-8 -17 -7 -33 4 -17 11 -32 12 -63 6 -23 -6 -43 -8 -46 -5 -2 2 -173 6 -380 7
l-376 4 0 -129 0 -129 2970 0 2970 0 0 130 0 130 -99 0 c-86 0 -102 -3 -127
-22 -16 -12 -31 -25 -34 -29 -5 -7 -35 -12 -59 -10 -7 0 -11 7 -8 15 8 21 -16
39 -33 23 -8 -7 -11 -8 -7 -1 11 19 -41 21 -630 20 -332 -1 -559 3 -556 8 4 5
1 6 -6 2 -6 -4 -159 -9 -339 -11 -204 -3 -321 0 -312 5 8 6 10 10 5 10 -6 0
-21 -7 -33 -16 -12 -8 -27 -12 -32 -9 -6 4 -65 6 -133 6 -207 -1 -206 0 -216
-19 -10 -17 -12 -15 -15 10 -1 9 -14 12 -40 10 -26 -3 -36 0 -32 7 8 12 3 15
-8 4z m-316 -63 c0 -5 -7 -10 -15 -10 -8 0 -15 5 -15 10 0 6 7 10 15 10 8 0
15 -4 15 -10z m15 -31 c11 -16 2 -17 -25 -2 -24 12 -24 13 -3 13 12 0 25 -5
28 -11z"/>
</g>
</svg>
