<?xml version="1.0" encoding="UTF-8"?><svg version="1.1" viewBox="0 -22.9216 13.006 12.0152" xmlns="http://www.w3.org/2000/svg" xmlns:xlink="http://www.w3.org/1999/xlink"><path d="M6.09-20.2332q0 .476-.14.896 -.14.42-.49.714 -.35.294-.826.308 -.588 0-1.078-.448 -.49-.448-.714-1.064 -.224-.616-.238-1.176 0-.462.14-.882 .14-.42.504-.728 .364-.308.812-.308 .602 0 1.092.448 .49.448.714 1.064 .224.616.224 1.176Zm-2.674 3.78q0 .63-.322 1.078 -.322.448-.924.455 -.602.007-1.106-.427 -.504-.434-.784-1.036 -.28-.602-.28-1.19 0-.63.322-1.092 .322-.462.924-.462 .602 0 1.12.434 .518.434.784 1.05 .266.616.266 1.19Zm3.08-.21q.924 0 2.002.756 1.078.756 1.778 1.848 .7 1.092.728 1.988 0 .364-.14.602 -.14.238-.378.35 -.238.112-.504.168 -.266.056-.588.042 -.532 0-1.47-.35 -.938-.35-1.435-.357 -.497-.007-1.491.343 -.994.35-1.568.35 -1.428 0-1.428-1.148 0-.672.434-1.484 .434-.812 1.092-1.512 .658-.7 1.47-1.134 .812-.434 1.498-.462Zm1.876-1.652q-.476 0-.826-.308 -.35-.308-.49-.714 -.14-.406-.154-.896 0-.574.238-1.176 .238-.602.714-1.064 .476-.462 1.078-.448 .476 0 .826.308 .35.308.49.728 .14.42.154.882 0 .574-.238 1.176 -.238.602-.714 1.064 -.476.462-1.078.448Zm3.374-.812q.602 0 .924.462 .322.462.336 1.092 0 .574-.28 1.19 -.28.616-.784 1.036 -.504.42-1.106.427 -.602.007-.924-.455 -.322-.462-.336-1.078 0-.574.28-1.19 .28-.616.784-1.05 .504-.434 1.106-.434Z" fill="#000"></path></svg>