<?xml version="1.0" encoding="UTF-8"?><svg version="1.1" viewBox="0 -22.75 14.84 11.844" xmlns="http://www.w3.org/2000/svg" xmlns:xlink="http://www.w3.org/1999/xlink"><path d="M3.5-20.244q0-.42-.294-.714 -.294-.294-.7-.28 -.406.014-.714.28 -.308.266-.294.714 .014.448.294.7 .28.252.714.294 .434.042.7-.294 .266-.336.294-.7Zm8.33 4.494q0 .42-.28.714l-3.836 3.836q-.308.294-.721.294 -.413 0-.693-.294l-5.586-5.586q-.294-.294-.504-.798 -.21-.504-.21-.91v-3.248q0-.406.294-.7 .294-.294.7-.308h3.262q.406 0 .91.21 .504.21.798.504l5.586 5.586q.28.294.28.7Zm3.01 0q0 .42-.294.714l-3.836 3.836q-.308.294-.714.294 -.28 0-.462-.112 -.182-.112-.406-.35l3.668-3.668q.294-.294.294-.707 0-.413-.294-.707l-5.586-5.586q-.294-.294-.798-.504 -.504-.21-.91-.21h1.75q.406 0 .91.21 .504.21.798.504l5.586 5.586q.294.294.294.7Z" fill="#000"></path></svg>