<?xml version="1.0" encoding="UTF-8"?><svg version="1.1" viewBox="-0.007 -22.33 18.011 11.62" xmlns="http://www.w3.org/2000/svg" xmlns:xlink="http://www.w3.org/1999/xlink"><path d="M11.676-10.71l-2.31-5.432 -1.232 2.38q-1.036 2.002-1.554 3.052h-.21q-.196 0-.21-.014 -.644-1.512-2.002-4.592 -1.358-3.08-2.03-4.648 -.154-.392-.518-.84 -.364-.448-.798-.784 -.434-.336-.798-.336l-.014-.196q-.014-.154 0-.21h4.55v.392q-.294.014-.616.126 -.322.112-.518.336 -.196.224-.084.504 .21.462 1.694 3.892 1.484 3.43 1.848 4.228 .238-.476 1.092-2.086l1.022-1.932q-.154-.308-.994-2.198 -.84-1.89-1.05-2.31 -.308-.532-1.582-.546v-.392h4.018v.378q-.476.014-.728.196 -.252.182-.098.532 .252.546.672 1.484 .42.938.672 1.47 .854-1.68 1.358-2.842 .182-.434-.084-.616 -.266-.182-1.008-.21 .014-.056.014-.196v-.196h2.73q.56 0 .728-.014v.392q-.49.014-.938.252 -.448.238-.7.63l-1.666 3.458 .994 2.268q.882 2.016.952 2.142l3.444-7.952q-.098-.294-.378-.49 -.28-.196-.518-.238l-.42-.07v-.392l3.584.042 .014.014 -.014.336q-1.078.028-1.568 1.134 -4.102 9.506-4.368 10.094Z" fill="#000"></path></svg>